<svg xmlns="http://www.w3.org/2000/svg" xmlns:xlink="http://www.w3.org/1999/xlink" xmlns:lucid="lucid" width="1316" height="361.73"><g transform="translate(-329.5 0.5)" lucid:page-tab-id="0_0"><path d="M410 26.73a6 6 0 0 1 6-6h268a6 6 0 0 1 6 6v308a6 6 0 0 1-6 6H416a6 6 0 0 1-6-6z" stroke="#3a414a" fill="#fff"/><path d="M410.5 61.23h279" stroke="#3a414a" stroke-linecap="round" fill="none"/><path d="M440 26.73a6 6 0 0 1 6-6h208a6 6 0 0 1 6 6v48a6 6 0 0 1-6 6H446a6 6 0 0 1-6-6z" stroke="#000" stroke-opacity="0" fill="#fff" fill-opacity="0"/><use xlink:href="#a" transform="matrix(1,0,0,1,445,25.730378642448272) translate(71.14197530864197 30.27777777777778)"/><path d="M410.5 149.34h279" stroke="#3a414a" stroke-linecap="round" fill="none"/><path d="M410 71.52a6 6 0 0 1 6-6h118a6 6 0 0 1 6 6v11.8a6 6 0 0 1-6 6H416a6 6 0 0 1-6-6z" stroke="#000" stroke-opacity="0" fill="#fff" fill-opacity="0"/><use xlink:href="#b" transform="matrix(1,0,0,1,415,70.51746990057242) translate(10.291358024691363 11.705555555555556)"/><use xlink:href="#c" transform="matrix(1,0,0,1,415,70.51746990057242) translate(17.861728395061732 11.705555555555556)"/><use xlink:href="#d" transform="matrix(1,0,0,1,415,70.51746990057242) translate(55.851851851851855 11.705555555555556)"/><path d="M410 95.33a6 6 0 0 1 6-6h128a6 6 0 0 1 6 6v3.7a6 6 0 0 1-6 6H416a6 6 0 0 1-6-6z" stroke="#000" stroke-opacity="0" fill="#fff" fill-opacity="0"/><use xlink:href="#e" transform="matrix(1,0,0,1,415,94.32607572848966) translate(7.4006172839506235 9.955555555555556)"/><use xlink:href="#f" transform="matrix(1,0,0,1,415,94.32607572848966) translate(10.487037037037043 9.955555555555556)"/><use xlink:href="#g" transform="matrix(1,0,0,1,415,94.32607572848966) translate(17.61666666666667 9.955555555555556)"/><use xlink:href="#d" transform="matrix(1,0,0,1,415,94.32607572848966) translate(68.74259259259259 9.955555555555556)"/><path d="M410 112.08a6 6 0 0 1 6-6h168a6 6 0 0 1 6 6v14a6 6 0 0 1-6 6H416a6 6 0 0 1-6-6z" stroke="#000" stroke-opacity="0" fill="#fff" fill-opacity="0"/><use xlink:href="#h" transform="matrix(1,0,0,1,415,111.08145437093793) translate(2.5740740740741046 12.666666666666664)"/><use xlink:href="#i" transform="matrix(1,0,0,1,415,111.08145437093793) translate(9.98148148148151 12.666666666666664)"/><use xlink:href="#j" transform="matrix(1,0,0,1,415,111.08145437093793) translate(18.09259259259262 12.666666666666664)"/><use xlink:href="#k" transform="matrix(1,0,0,1,415,111.08145437093793) translate(61.05555555555557 12.666666666666664)"/><path d="M370 119.62a6 6 0 0 1 6-6h268a6 6 0 0 1 6 6v35.1a6 6 0 0 1-6 6H376a6 6 0 0 1-6-6z" stroke="#000" stroke-opacity="0" fill="#fff" fill-opacity="0"/><use xlink:href="#l" transform="matrix(1,0,0,1,375,118.62392427151036) translate(36.77407407407408 21.830555555555556)"/><use xlink:href="#m" transform="matrix(1,0,0,1,375,118.62392427151036) translate(50.60123456790124 21.830555555555556)"/><use xlink:href="#n" transform="matrix(1,0,0,1,375,118.62392427151036) translate(58.17160493827161 21.830555555555556)"/><use xlink:href="#o" transform="matrix(1,0,0,1,375,118.62392427151036) translate(116.83333333333333 21.830555555555556)"/><path d="M350 155.84a6 6 0 0 1 6-6h268a6 6 0 0 1 6 6v35.1a6 6 0 0 1-6 6H356a6 6 0 0 1-6-6z" stroke="#000" stroke-opacity="0" fill="#fff" fill-opacity="0"/><use xlink:href="#p" transform="matrix(1,0,0,1,355,154.8368330133862) translate(67.96296296296296 22.541666666666668)"/><use xlink:href="#q" transform="matrix(1,0,0,1,355,154.8368330133862) translate(79.44444444444444 22.541666666666668)"/><use xlink:href="#r" transform="matrix(1,0,0,1,355,154.8368330133862) translate(178.62962962962962 22.541666666666668)"/><path d="M350 175.33a6 6 0 0 1 6-6h268a6 6 0 0 1 6 6v35.1a6 6 0 0 1-6 6H356a6 6 0 0 1-6-6z" stroke="#000" stroke-opacity="0" fill="#fff" fill-opacity="0"/><use xlink:href="#s" transform="matrix(1,0,0,1,355,174.32607572848966) translate(45.77777777777777 22.541666666666668)"/><use xlink:href="#t" transform="matrix(1,0,0,1,355,174.32607572848966) translate(68 22.541666666666668)"/><use xlink:href="#u" transform="matrix(1,0,0,1,355,174.32607572848966) translate(79.48148148148147 22.541666666666668)"/><use xlink:href="#r" transform="matrix(1,0,0,1,355,174.32607572848966) translate(200.8148148148148 22.541666666666668)"/><path d="M360 187.85a6 6 0 0 1 6-6h268a6 6 0 0 1 6 6v49.2a6 6 0 0 1-6 6H366a6 6 0 0 1-6-6z" stroke="#000" stroke-opacity="0" fill="#fff" fill-opacity="0"/><use xlink:href="#v" transform="matrix(1,0,0,1,365,186.84974175526204) translate(32.86790123456791 29.455555555555556)"/><use xlink:href="#w" transform="matrix(1,0,0,1,365,186.84974175526204) translate(57.06543209876544 29.455555555555556)"/><use xlink:href="#x" transform="matrix(1,0,0,1,365,186.84974175526204) translate(67.78148148148149 29.455555555555556)"/><use xlink:href="#y" transform="matrix(1,0,0,1,365,186.84974175526204) translate(215.35185185185185 29.455555555555556)"/><path d="M370 206.73a6 6 0 0 1 6-6h268a6 6 0 0 1 6 6v49.2a6 6 0 0 1-6 6H376a6 6 0 0 1-6-6z" stroke="#000" stroke-opacity="0" fill="#fff" fill-opacity="0"/><use xlink:href="#z" transform="matrix(1,0,0,1,375,205.73037864244827) translate(39.00370370370371 29.455555555555556)"/><use xlink:href="#w" transform="matrix(1,0,0,1,375,205.73037864244827) translate(45.91728395061729 29.455555555555556)"/><use xlink:href="#A" transform="matrix(1,0,0,1,375,205.73037864244827) translate(56.63333333333334 29.455555555555556)"/><use xlink:href="#B" transform="matrix(1,0,0,1,375,205.73037864244827) translate(169.8432098765432 29.455555555555556)"/><use xlink:href="#y" transform="matrix(1,0,0,1,375,205.73037864244827) translate(209.21604938271605 29.455555555555556)"/><path d="M370 226.73a6 6 0 0 1 6-6h268a6 6 0 0 1 6 6v49.2a6 6 0 0 1-6 6H376a6 6 0 0 1-6-6z" stroke="#000" stroke-opacity="0" fill="#fff" fill-opacity="0"/><use xlink:href="#C" transform="matrix(1,0,0,1,375,225.73037864244827) translate(35.56419753086419 29.455555555555556)"/><use xlink:href="#w" transform="matrix(1,0,0,1,375,225.73037864244827) translate(45.93456790123456 29.455555555555556)"/><use xlink:href="#D" transform="matrix(1,0,0,1,375,225.73037864244827) translate(56.65061728395061 29.455555555555556)"/><use xlink:href="#B" transform="matrix(1,0,0,1,375,225.73037864244827) translate(173.2827160493827 29.455555555555556)"/><use xlink:href="#y" transform="matrix(1,0,0,1,375,225.73037864244827) translate(212.65555555555557 29.455555555555556)"/><path d="M720 26a6 6 0 0 1 6-6h268a6 6 0 0 1 6 6v308a6 6 0 0 1-6 6H726a6 6 0 0 1-6-6z" stroke="#3a414a" fill="#fff"/><path d="M720.5 60.5h279" stroke="#3a414a" stroke-linecap="round" fill="none"/><path d="M750 26a6 6 0 0 1 6-6h208a6 6 0 0 1 6 6v48a6 6 0 0 1-6 6H756a6 6 0 0 1-6-6z" stroke="#000" stroke-opacity="0" fill="#fff" fill-opacity="0"/><use xlink:href="#E" transform="matrix(1,0,0,1,754.9999999999999,25) translate(79.69135802469137 30.27777777777778)"/><path d="M720.5 148.6h279" stroke="#3a414a" stroke-linecap="round" fill="none"/><path d="M700 70.8a6 6 0 0 1 6-6h118a6 6 0 0 1 6 6v11.8a6 6 0 0 1-6 6H706a6 6 0 0 1-6-6z" stroke="#000" stroke-opacity="0" fill="#fff" fill-opacity="0"/><use xlink:href="#F" transform="matrix(1,0,0,1,705,69.78709125812415) translate(2.3580246913580254 11.705555555555556)"/><use xlink:href="#m" transform="matrix(1,0,0,1,705,69.78709125812415) translate(30.01234567901235 11.705555555555556)"/><use xlink:href="#G" transform="matrix(1,0,0,1,705,69.78709125812415) translate(37.58271604938272 11.705555555555556)"/><use xlink:href="#d" transform="matrix(1,0,0,1,705,69.78709125812415) translate(63.785185185185185 11.705555555555556)"/><path d="M700 90.3a6 6 0 0 1 6-6h148a6 6 0 0 1 6 6v8a6 6 0 0 1-6 6H706a6 6 0 0 1-6-6z" stroke="#000" stroke-opacity="0" fill="#fff" fill-opacity="0"/><use xlink:href="#l" transform="matrix(1,0,0,1,705,89.2978485430207) translate(16.303703703703704 9.955555555555556)"/><use xlink:href="#m" transform="matrix(1,0,0,1,705,89.2978485430207) translate(30.13086419753086 9.955555555555556)"/><use xlink:href="#H" transform="matrix(1,0,0,1,705,89.2978485430207) translate(37.70123456790123 9.955555555555556)"/><use xlink:href="#d" transform="matrix(1,0,0,1,705,89.2978485430207) translate(79.83950617283949 9.955555555555556)"/><path d="M690 101.75a6 6 0 0 1 6-6h168a6 6 0 0 1 6 6v23.6a6 6 0 0 1-6 6H696a6 6 0 0 1-6-6z" stroke="#000" stroke-opacity="0" fill="#fff" fill-opacity="0"/><use xlink:href="#b" transform="matrix(1,0,0,1,695,100.75107572848964) translate(39.93950617283951 14.830555555555556)"/><use xlink:href="#I" transform="matrix(1,0,0,1,695,100.75107572848964) translate(47.50987654320988 14.830555555555556)"/><use xlink:href="#d" transform="matrix(1,0,0,1,695,100.75107572848964) translate(77.2037037037037 14.830555555555556)"/><path d="M630 111.35a6 6 0 0 1 6-6h268a6 6 0 0 1 6 6v35.1a6 6 0 0 1-6 6H636a6 6 0 0 1-6-6z" stroke="#000" stroke-opacity="0" fill="#fff" fill-opacity="0"/><use xlink:href="#J" transform="matrix(1,0,0,1,635,110.35107572848966) translate(83.38888888888889 21.830555555555556)"/><use xlink:href="#m" transform="matrix(1,0,0,1,635,110.35107572848966) translate(100.67283950617283 21.830555555555556)"/><use xlink:href="#K" transform="matrix(1,0,0,1,635,110.35107572848966) translate(108.2432098765432 21.830555555555556)"/><use xlink:href="#L" transform="matrix(1,0,0,1,635,110.35107572848966) translate(164.1395061728395 21.830555555555556)"/><path d="M720 158.46a6 6 0 0 1 6-6h168a6 6 0 0 1 6 6v18.9a6 6 0 0 1-6 6H726a6 6 0 0 1-6-6z" stroke="#000" stroke-opacity="0" fill="#fff" fill-opacity="0"/><use xlink:href="#M" transform="matrix(1,0,0,1,725,157.45753009942757) translate(8.932098765432102 12.580555555555556)"/><use xlink:href="#N" transform="matrix(1,0,0,1,725,157.45753009942757) translate(19.648148148148152 12.580555555555556)"/><use xlink:href="#O" transform="matrix(1,0,0,1,725,157.45753009942757) translate(71.56913580246913 12.580555555555556)"/><use xlink:href="#d" transform="matrix(1,0,0,1,725,157.45753009942757) translate(108.21111111111111 12.580555555555556)"/><path d="M710 182.7a6 6 0 0 1 6-6h188a6 6 0 0 1 6 6v18.9a6 6 0 0 1-6 6H716a6 6 0 0 1-6-6z" stroke="#000" stroke-opacity="0" fill="#fff" fill-opacity="0"/><use xlink:href="#l" transform="matrix(1,0,0,1,715,181.70215145697932) translate(4.691358024691354 12.580555555555556)"/><use xlink:href="#w" transform="matrix(1,0,0,1,715,181.70215145697932) translate(18.518518518518512 12.580555555555556)"/><use xlink:href="#P" transform="matrix(1,0,0,1,715,181.70215145697932) translate(29.234567901234563 12.580555555555556)"/><use xlink:href="#O" transform="matrix(1,0,0,1,715,181.70215145697932) translate(94.80987654320988 12.580555555555556)"/><use xlink:href="#d" transform="matrix(1,0,0,1,715,181.70215145697932) translate(131.45185185185187 12.580555555555556)"/><path d="M710 193.58a6 6 0 0 1 6-6h178a6 6 0 0 1 6 6v36.28a6 6 0 0 1-6 6H716a6 6 0 0 1-6-6z" stroke="#000" stroke-opacity="0" fill="#fff" fill-opacity="0"/><use xlink:href="#l" transform="matrix(1,0,0,1,714.9999999999999,192.58253722435057) translate(3.9938271604938222 22.143055555555556)"/><use xlink:href="#w" transform="matrix(1,0,0,1,714.9999999999999,192.58253722435057) translate(17.82098765432098 22.143055555555556)"/><use xlink:href="#Q" transform="matrix(1,0,0,1,714.9999999999999,192.58253722435057) translate(28.53703703703703 22.143055555555556)"/><use xlink:href="#O" transform="matrix(1,0,0,1,714.9999999999999,192.58253722435057) translate(86.5074074074074 22.143055555555556)"/><use xlink:href="#d" transform="matrix(1,0,0,1,714.9999999999999,192.58253722435057) translate(123.14938271604937 22.143055555555556)"/><path d="M680 228.32a6 6 0 0 1 6-6h228a6 6 0 0 1 6 6v8a6 6 0 0 1-6 6H686a6 6 0 0 1-6-6z" stroke="#000" stroke-opacity="0" fill="#fff" fill-opacity="0"/><g><use xlink:href="#z" transform="matrix(1,0,0,1,685,227.3193631128138) translate(41.24814814814815 9.955555555555556)"/><use xlink:href="#w" transform="matrix(1,0,0,1,685,227.3193631128138) translate(48.16172839506173 9.955555555555556)"/><use xlink:href="#R" transform="matrix(1,0,0,1,685,227.3193631128138) translate(58.87777777777778 9.955555555555556)"/><use xlink:href="#O" transform="matrix(1,0,0,1,685,227.3193631128138) translate(129.63827160493827 9.955555555555556)"/><use xlink:href="#L" transform="matrix(1,0,0,1,685,227.3193631128138) translate(166.28024691358024 9.955555555555556)"/></g><path d="M685 247.2a6 6 0 0 1 6-6h228a6 6 0 0 1 6 6v8a6 6 0 0 1-6 6H691a6 6 0 0 1-6-6z" stroke="#000" stroke-opacity="0" fill="#fff" fill-opacity="0"/><g><use xlink:href="#M" transform="matrix(1,0,0,1,690,246.19999999999996) translate(41.97407407407408 9.955555555555556)"/><use xlink:href="#S" transform="matrix(1,0,0,1,690,246.19999999999996) translate(52.69012345679013 9.955555555555556)"/><use xlink:href="#y" transform="matrix(1,0,0,1,690,246.19999999999996) translate(166.24567901234568 9.955555555555556)"/></g><path d="M1030 26a6 6 0 0 1 6-6h268a6 6 0 0 1 6 6v308a6 6 0 0 1-6 6h-268a6 6 0 0 1-6-6z" stroke="#3a414a" fill="#fff"/><path d="M1030.5 60.5h279" stroke="#3a414a" stroke-linecap="round" fill="none"/><path d="M1060 26a6 6 0 0 1 6-6h208a6 6 0 0 1 6 6v48a6 6 0 0 1-6 6h-208a6 6 0 0 1-6-6z" stroke="#000" stroke-opacity="0" fill="#fff" fill-opacity="0"/><g><use xlink:href="#T" transform="matrix(1,0,0,1,1064.9999999999998,25) translate(64.35185185185185 30.27777777777778)"/></g><path d="M1030.5 148.6h279" stroke="#3a414a" stroke-linecap="round" fill="none"/><path d="M1005 72.47a6 6 0 0 1 6-6h138a6 6 0 0 1 6 6v11.8a6 6 0 0 1-6 6h-138a6 6 0 0 1-6-6z" stroke="#000" stroke-opacity="0" fill="#fff" fill-opacity="0"/><g><use xlink:href="#U" transform="matrix(1,0,0,1,1010.0000000000001,71.47123495028623) translate(4.735802469135805 11.705555555555556)"/><use xlink:href="#m" transform="matrix(1,0,0,1,1010.0000000000001,71.47123495028623) translate(35.84691358024692 11.705555555555556)"/><use xlink:href="#c" transform="matrix(1,0,0,1,1010.0000000000001,71.47123495028623) translate(43.41728395061729 11.705555555555556)"/><use xlink:href="#d" transform="matrix(1,0,0,1,1010.0000000000001,71.47123495028623) translate(81.4074074074074 11.705555555555556)"/></g><path d="M1030 90.3a6 6 0 0 1 6-6h158a6 6 0 0 1 6 6v9.05a6 6 0 0 1-6 6h-158a6 6 0 0 1-6-6z" stroke="#000" stroke-opacity="0" fill="#fff" fill-opacity="0"/><g><use xlink:href="#C" transform="matrix(1,0,0,1,1035.0000000000002,89.29784854302065) translate(0 11.455555555555556)"/><use xlink:href="#m" transform="matrix(1,0,0,1,1035.0000000000002,89.29784854302065) translate(10.37037037037037 11.455555555555556)"/><use xlink:href="#V" transform="matrix(1,0,0,1,1035.0000000000002,89.29784854302065) translate(17.94074074074074 11.455555555555556)"/><use xlink:href="#W" transform="matrix(1,0,0,1,1035.0000000000002,89.29784854302065) translate(80.75061728395062 11.455555555555556)"/></g><path d="M1030 96.28a6 6 0 0 1 6-6h218a6 6 0 0 1 6 6v33.52a6 6 0 0 1-6 6h-218a6 6 0 0 1-6-6z" stroke="#000" stroke-opacity="0" fill="#fff" fill-opacity="0"/><g><use xlink:href="#b" transform="matrix(1,0,0,1,1034.9999999999995,95.27984077820346) translate(9.493827160493822 21.205555555555556)"/><use xlink:href="#X" transform="matrix(1,0,0,1,1034.9999999999995,95.27984077820346) translate(17.06419753086419 21.205555555555556)"/><use xlink:href="#Y" transform="matrix(1,0,0,1,1034.9999999999995,95.27984077820346) translate(110.29382716049383 21.205555555555556)"/></g><path d="M1030 143.3a6 6 0 0 1 6-6h168a6 6 0 0 1 6 6v49.2a6 6 0 0 1-6 6h-168a6 6 0 0 1-6-6z" stroke="#000" stroke-opacity="0" fill="#fff" fill-opacity="0"/><g><use xlink:href="#M" transform="matrix(1,0,0,1,1035,142.3043029139586) translate(3.850617283950612 29.455555555555556)"/><use xlink:href="#Z" transform="matrix(1,0,0,1,1035,142.3043029139586) translate(14.566666666666661 29.455555555555556)"/><use xlink:href="#O" transform="matrix(1,0,0,1,1035,142.3043029139586) translate(76.65061728395061 29.455555555555556)"/><use xlink:href="#d" transform="matrix(1,0,0,1,1035,142.3043029139586) translate(113.29259259259258 29.455555555555556)"/></g><path d="M1015 179.6a6 6 0 0 1 6-6h178a6 6 0 0 1 6 6v12.24a6 6 0 0 1-6 6h-178a6 6 0 0 1-6-6z" stroke="#000" stroke-opacity="0" fill="#fff" fill-opacity="0"/><g><use xlink:href="#M" transform="matrix(1,0,0,1,1020,178.59059806309992) translate(17.33827160493827 11.830555555555556)"/><use xlink:href="#aa" transform="matrix(1,0,0,1,1020,178.59059806309992) translate(28.05432098765432 11.830555555555556)"/><use xlink:href="#O" transform="matrix(1,0,0,1,1020,178.59059806309992) translate(112.91851851851852 11.830555555555556)"/><use xlink:href="#W" transform="matrix(1,0,0,1,1020,178.59059806309992) translate(149.56049382716049 11.830555555555556)"/></g><path d="M1020 203.84a6 6 0 0 1 6-6h168a6 6 0 0 1 6 6v11.8a6 6 0 0 1-6 6h-168a6 6 0 0 1-6-6z" stroke="#000" stroke-opacity="0" fill="#fff" fill-opacity="0"/><g><use xlink:href="#M" transform="matrix(1,0,0,1,1025,202.83521942065184) translate(13.375308641975309 11.705555555555556)"/><use xlink:href="#ab" transform="matrix(1,0,0,1,1025,202.83521942065184) translate(24.09135802469136 11.705555555555556)"/><use xlink:href="#y" transform="matrix(1,0,0,1,1025,202.83521942065184) translate(133.84444444444443 11.705555555555556)"/></g><path d="M950 228.32a6 6 0 0 1 6-6h268a6 6 0 0 1 6 6V234a6 6 0 0 1-6 6H956a6 6 0 0 1-6-6z" stroke="#000" stroke-opacity="0" fill="#fff" fill-opacity="0"/><g><use xlink:href="#U" transform="matrix(1,0,0,1,955,227.3193631128138) translate(51.0679012345679 9.955555555555556)"/><use xlink:href="#w" transform="matrix(1,0,0,1,955,227.3193631128138) translate(82.17901234567901 9.955555555555556)"/><use xlink:href="#ac" transform="matrix(1,0,0,1,955,227.3193631128138) translate(92.89506172839506 9.955555555555556)"/><use xlink:href="#y" transform="matrix(1,0,0,1,955,227.3193631128138) translate(197.15185185185186 9.955555555555556)"/></g><path d="M1345 26a6 6 0 0 1 6-6h268a6 6 0 0 1 6 6v308a6 6 0 0 1-6 6h-268a6 6 0 0 1-6-6z" stroke="#3a414a" fill="#fff"/><path d="M1345.5 60.5h279" stroke="#3a414a" stroke-linecap="round" fill="none"/><path d="M1375 26a6 6 0 0 1 6-6h208a6 6 0 0 1 6 6v48a6 6 0 0 1-6 6h-208a6 6 0 0 1-6-6z" stroke="#000" stroke-opacity="0" fill="#fff" fill-opacity="0"/><g><use xlink:href="#ad" transform="matrix(1,0,0,1,1379.9999999999998,25) translate(47.46913580246913 30.27777777777778)"/></g><path d="M1345.5 154.7h279" stroke="#3a414a" stroke-linecap="round" fill="none"/><path d="M1325 72.47a6 6 0 0 1 6-6h143a6 6 0 0 1 6 6v11.8a6 6 0 0 1-6 6h-143a6 6 0 0 1-6-6z" stroke="#000" stroke-opacity="0" fill="#fff" fill-opacity="0"/><g><use xlink:href="#b" transform="matrix(1,0,0,1,1330,71.47123495028623) translate(23.137037037037047 11.705555555555556)"/><use xlink:href="#ae" transform="matrix(1,0,0,1,1330,71.47123495028623) translate(30.707407407407416 11.705555555555556)"/><use xlink:href="#W" transform="matrix(1,0,0,1,1330,71.47123495028623) translate(108.76172839506172 11.705555555555556)"/></g><path d="M1345 90.3a6 6 0 0 1 6-6h138a6 6 0 0 1 6 6v9.05a6 6 0 0 1-6 6h-138a6 6 0 0 1-6-6z" stroke="#000" stroke-opacity="0" fill="#fff" fill-opacity="0"/><g><use xlink:href="#af" transform="matrix(1,0,0,1,1350,89.29784854302065) translate(0 11.455555555555556)"/><use xlink:href="#m" transform="matrix(1,0,0,1,1350,89.29784854302065) translate(3.45679012345679 11.455555555555556)"/><use xlink:href="#ag" transform="matrix(1,0,0,1,1350,89.29784854302065) translate(11.027160493827159 11.455555555555556)"/><use xlink:href="#ah" transform="matrix(1,0,0,1,1350,89.29784854302065) translate(63.46666666666667 11.455555555555556)"/></g><path d="M1315 107.14a6 6 0 0 1 6-6h123a6 6 0 0 1 6 6v11.8a6 6 0 0 1-6 6h-123a6 6 0 0 1-6-6z" stroke="#000" stroke-opacity="0" fill="#fff" fill-opacity="0"/><g><use xlink:href="#C" transform="matrix(1,0,0,1,1319.9999999999998,106.13669320363284) translate(22.418518518518525 11.705555555555556)"/><use xlink:href="#m" transform="matrix(1,0,0,1,1319.9999999999998,106.13669320363284) translate(32.78888888888889 11.705555555555556)"/><use xlink:href="#ai" transform="matrix(1,0,0,1,1319.9999999999998,106.13669320363284) translate(40.35925925925926 11.705555555555556)"/><use xlink:href="#aj" transform="matrix(1,0,0,1,1319.9999999999998,106.13669320363284) translate(74.2358024691358 11.705555555555556)"/></g><path d="M1345 168.96a6 6 0 0 1 6-6h178a6 6 0 0 1 6 6v23.54a6 6 0 0 1-6 6h-178a6 6 0 0 1-6-6z" stroke="#000" stroke-opacity="0" fill="#fff" fill-opacity="0"/><g><use xlink:href="#M" transform="matrix(1,0,0,1,1350,167.95645437093796) translate(8.383950617283958 14.830555555555556)"/><use xlink:href="#ak" transform="matrix(1,0,0,1,1350,167.95645437093796) translate(19.10000000000001 14.830555555555556)"/><use xlink:href="#O" transform="matrix(1,0,0,1,1350,167.95645437093796) translate(122.87283950617285 14.830555555555556)"/><use xlink:href="#W" transform="matrix(1,0,0,1,1350,167.95645437093796) translate(159.51481481481483 14.830555555555556)"/></g><path d="M1327.5 186a6 6 0 0 1 6-6h193a6 6 0 0 1 6 6v11.8a6 6 0 0 1-6 6h-193a6 6 0 0 1-6-6z" stroke="#000" stroke-opacity="0" fill="#fff" fill-opacity="0"/><g><use xlink:href="#v" transform="matrix(1,0,0,1,1332.5,185) translate(1.7123456790123583 11.705555555555556)"/><use xlink:href="#w" transform="matrix(1,0,0,1,1332.5,185) translate(25.90987654320989 11.705555555555556)"/><use xlink:href="#al" transform="matrix(1,0,0,1,1332.5,185) translate(36.62592592592594 11.705555555555556)"/><use xlink:href="#O" transform="matrix(1,0,0,1,1332.5,185) translate(111.11975308641976 11.705555555555556)"/><use xlink:href="#ah" transform="matrix(1,0,0,1,1332.5,185) translate(147.7617283950617 11.705555555555556)"/></g><path d="M1335 203.84a6 6 0 0 1 6-6h168a6 6 0 0 1 6 6v11.8a6 6 0 0 1-6 6h-168a6 6 0 0 1-6-6z" stroke="#000" stroke-opacity="0" fill="#fff" fill-opacity="0"/><g><use xlink:href="#M" transform="matrix(1,0,0,1,1340.0000000000002,202.83521942065184) translate(18.491358024691365 11.705555555555556)"/><use xlink:href="#am" transform="matrix(1,0,0,1,1340.0000000000002,202.83521942065184) translate(29.207407407407416 11.705555555555556)"/><use xlink:href="#O" transform="matrix(1,0,0,1,1340.0000000000002,202.83521942065184) translate(86.52098765432099 11.705555555555556)"/><use xlink:href="#aj" transform="matrix(1,0,0,1,1340.0000000000002,202.83521942065184) translate(123.16296296296296 11.705555555555556)"/></g><path d="M1280 226a6 6 0 0 1 6-6h268a6 6 0 0 1 6 6v5.68a6 6 0 0 1-6 6h-268a6 6 0 0 1-6-6z" stroke="#000" stroke-opacity="0" fill="#fff" fill-opacity="0"/><g><use xlink:href="#U" transform="matrix(1,0,0,1,1285,225) translate(41.73456790123457 9.955555555555556)"/><use xlink:href="#w" transform="matrix(1,0,0,1,1285,225) translate(72.84567901234568 9.955555555555556)"/><use xlink:href="#an" transform="matrix(1,0,0,1,1285,225) translate(83.56172839506173 9.955555555555556)"/><use xlink:href="#O" transform="matrix(1,0,0,1,1285,225) translate(138.76666666666665 9.955555555555556)"/><use xlink:href="#d" transform="matrix(1,0,0,1,1285,225) translate(175.40864197530863 9.955555555555556)"/></g><path d="M1300 123.87a6 6 0 0 1 6-6h168a6 6 0 0 1 6 6v5.93a6 6 0 0 1-6 6h-168a6 6 0 0 1-6-6z" stroke="#000" stroke-opacity="0" fill="#fff" fill-opacity="0"/><g><use xlink:href="#J" transform="matrix(1,0,0,1,1305,122.86942233030608) translate(30.58888888888889 9.955555555555556)"/><use xlink:href="#m" transform="matrix(1,0,0,1,1305,122.86942233030608) translate(47.87283950617284 9.955555555555556)"/><use xlink:href="#ao" transform="matrix(1,0,0,1,1305,122.86942233030608) translate(55.44320987654321 9.955555555555556)"/><use xlink:href="#d" transform="matrix(1,0,0,1,1305,122.86942233030608) translate(86.55432098765432 9.955555555555556)"/></g><path d="M1300 137.17a6 6 0 0 1 6-6h168a6 6 0 0 1 6 6v5.94a6 6 0 0 1-6 6h-168a6 6 0 0 1-6-6z" stroke="#000" stroke-opacity="0" fill="#fff" fill-opacity="0"/><g><use xlink:href="#J" transform="matrix(1,0,0,1,1304.9999999999998,136.17372524426497) translate(30.934567901234573 9.955555555555556)"/><use xlink:href="#m" transform="matrix(1,0,0,1,1304.9999999999998,136.17372524426497) translate(48.21851851851852 9.955555555555556)"/><use xlink:href="#ap" transform="matrix(1,0,0,1,1304.9999999999998,136.17372524426497) translate(55.78888888888889 9.955555555555556)"/><use xlink:href="#d" transform="matrix(1,0,0,1,1304.9999999999998,136.17372524426497) translate(86.20864197530864 9.955555555555556)"/></g><path d="M1280 246a6 6 0 0 1 6-6h268a6 6 0 0 1 6 6v5.68a6 6 0 0 1-6 6h-268a6 6 0 0 1-6-6z" stroke="#000" stroke-opacity="0" fill="#fff" fill-opacity="0"/><g><use xlink:href="#U" transform="matrix(1,0,0,1,1284.9999999999998,245) translate(41.388888888888886 9.955555555555556)"/><use xlink:href="#w" transform="matrix(1,0,0,1,1284.9999999999998,245) translate(72.5 9.955555555555556)"/><use xlink:href="#aq" transform="matrix(1,0,0,1,1284.9999999999998,245) translate(83.21604938271605 9.955555555555556)"/><use xlink:href="#O" transform="matrix(1,0,0,1,1284.9999999999998,245) translate(139.11234567901235 9.955555555555556)"/><use xlink:href="#d" transform="matrix(1,0,0,1,1284.9999999999998,245) translate(175.75432098765432 9.955555555555556)"/></g><defs><path fill="#3a414a" d="M30 0v-248h33v221h125V0H30" id="ar"/><path fill="#3a414a" d="M24-231v-30h32v30H24zM24 0v-190h32V0H24" id="as"/><path fill="#3a414a" d="M115-194c53 0 69 39 70 98 0 66-23 100-70 100C84 3 66-7 56-30L54 0H23l1-261h32v101c10-23 28-34 59-34zm-8 174c40 0 45-34 45-75 0-40-5-75-45-74-42 0-51 32-51 76 0 43 10 73 51 73" id="at"/><path fill="#3a414a" d="M114-163C36-179 61-72 57 0H25l-1-190h30c1 12-1 29 2 39 6-27 23-49 58-41v29" id="au"/><path fill="#3a414a" d="M141-36C126-15 110 5 73 4 37 3 15-17 15-53c-1-64 63-63 125-63 3-35-9-54-41-54-24 1-41 7-42 31l-33-3c5-37 33-52 76-52 45 0 72 20 72 64v82c-1 20 7 32 28 27v20c-31 9-61-2-59-35zM48-53c0 20 12 33 32 33 41-3 63-29 60-74-43 2-92-5-92 41" id="av"/><path fill="#3a414a" d="M179-190L93 31C79 59 56 82 12 73V49c39 6 53-20 64-50L1-190h34L92-34l54-156h33" id="aw"/><g id="a"><use transform="matrix(0.06172839506172839,0,0,0.06172839506172839,0,0)" xlink:href="#ar"/><use transform="matrix(0.06172839506172839,0,0,0.06172839506172839,12.345679012345679,0)" xlink:href="#as"/><use transform="matrix(0.06172839506172839,0,0,0.06172839506172839,17.22222222222222,0)" xlink:href="#at"/><use transform="matrix(0.06172839506172839,0,0,0.06172839506172839,29.5679012345679,0)" xlink:href="#au"/><use transform="matrix(0.06172839506172839,0,0,0.06172839506172839,36.913580246913575,0)" xlink:href="#av"/><use transform="matrix(0.06172839506172839,0,0,0.06172839506172839,49.25925925925925,0)" xlink:href="#au"/><use transform="matrix(0.06172839506172839,0,0,0.06172839506172839,56.60493827160493,0)" xlink:href="#aw"/></g><path d="M16-82v-28h88v28H16" id="ax"/><use transform="matrix(0.0345679012345679,0,0,0.0345679012345679,0,0)" xlink:href="#ax" id="b"/><path d="M117-194c89-4 53 116 60 194h-32v-121c0-31-8-49-39-48C34-167 62-67 57 0H25l-1-190h30c1 10-1 24 2 32 11-22 29-35 61-36" id="ay"/><path d="M141-36C126-15 110 5 73 4 37 3 15-17 15-53c-1-64 63-63 125-63 3-35-9-54-41-54-24 1-41 7-42 31l-33-3c5-37 33-52 76-52 45 0 72 20 72 64v82c-1 20 7 32 28 27v20c-31 9-61-2-59-35zM48-53c0 20 12 33 32 33 41-3 63-29 60-74-43 2-92-5-92 41" id="az"/><path d="M210-169c-67 3-38 105-44 169h-31v-121c0-29-5-50-35-48C34-165 62-65 56 0H25l-1-190h30c1 10-1 24 2 32 10-44 99-50 107 0 11-21 27-35 58-36 85-2 47 119 55 194h-31v-121c0-29-5-49-35-48" id="aA"/><path d="M100-194c63 0 86 42 84 106H49c0 40 14 67 53 68 26 1 43-12 49-29l28 8c-11 28-37 45-77 45C44 4 14-33 15-96c1-61 26-98 85-98zm52 81c6-60-76-77-97-28-3 7-6 17-6 28h103" id="aB"/><path d="M33-154v-36h34v36H33zM33 0v-36h34V0H33" id="aC"/><g id="c"><use transform="matrix(0.0345679012345679,0,0,0.0345679012345679,0,0)" xlink:href="#ay"/><use transform="matrix(0.0345679012345679,0,0,0.0345679012345679,6.91358024691358,0)" xlink:href="#az"/><use transform="matrix(0.0345679012345679,0,0,0.0345679012345679,13.82716049382716,0)" xlink:href="#aA"/><use transform="matrix(0.0345679012345679,0,0,0.0345679012345679,24.16296296296296,0)" xlink:href="#aB"/><use transform="matrix(0.0345679012345679,0,0,0.0345679012345679,31.07654320987654,0)" xlink:href="#aC"/></g><path d="M135-143c-3-34-86-38-87 0 15 53 115 12 119 90S17 21 10-45l28-5c4 36 97 45 98 0-10-56-113-15-118-90-4-57 82-63 122-42 12 7 21 19 24 35" id="aD"/><path d="M59-47c-2 24 18 29 38 22v24C64 9 27 4 27-40v-127H5v-23h24l9-43h21v43h35v23H59v120" id="aE"/><path d="M85-194c31 0 48 13 60 33l-1-100h32l1 261h-30c-2-10 0-23-3-31C134-8 116 4 85 4 32 4 16-35 15-94c0-66 23-100 70-100zm9 24c-40 0-46 34-46 75 0 40 6 74 45 74 42 0 51-32 51-76 0-42-9-74-50-73" id="aF"/><path d="M114-163C36-179 61-72 57 0H25l-1-190h30c1 12-1 29 2 39 6-27 23-49 58-41v29" id="aG"/><path d="M24-231v-30h32v30H24zM24 0v-190h32V0H24" id="aH"/><path d="M177-190C167-65 218 103 67 71c-23-6-38-20-44-43l32-5c15 47 100 32 89-28v-30C133-14 115 1 83 1 29 1 15-40 15-95c0-56 16-97 71-98 29-1 48 16 59 35 1-10 0-23 2-32h30zM94-22c36 0 50-32 50-73 0-42-14-75-50-75-39 0-46 34-46 75s6 73 46 73" id="aI"/><g id="d"><use transform="matrix(0.0345679012345679,0,0,0.0345679012345679,0,0)" xlink:href="#aD"/><use transform="matrix(0.0345679012345679,0,0,0.0345679012345679,6.222222222222221,0)" xlink:href="#aE"/><use transform="matrix(0.0345679012345679,0,0,0.0345679012345679,9.679012345679011,0)" xlink:href="#aF"/><use transform="matrix(0.0345679012345679,0,0,0.0345679012345679,16.59259259259259,0)" xlink:href="#aC"/><use transform="matrix(0.0345679012345679,0,0,0.0345679012345679,20.049382716049386,0)" xlink:href="#aC"/><use transform="matrix(0.0345679012345679,0,0,0.0345679012345679,23.506172839506174,0)" xlink:href="#aD"/><use transform="matrix(0.0345679012345679,0,0,0.0345679012345679,29.728395061728396,0)" xlink:href="#aE"/><use transform="matrix(0.0345679012345679,0,0,0.0345679012345679,33.18518518518518,0)" xlink:href="#aG"/><use transform="matrix(0.0345679012345679,0,0,0.0345679012345679,37.29876543209876,0)" xlink:href="#aH"/><use transform="matrix(0.0345679012345679,0,0,0.0345679012345679,40.029629629629625,0)" xlink:href="#ay"/><use transform="matrix(0.0345679012345679,0,0,0.0345679012345679,46.94320987654321,0)" xlink:href="#aI"/></g><use transform="matrix(0.030864197530864192,0,0,0.030864197530864192,0,0)" xlink:href="#ax" id="f"/><g id="g"><use transform="matrix(0.0345679012345679,0,0,0.0345679012345679,0,0)" xlink:href="#az"/><use transform="matrix(0.0345679012345679,0,0,0.0345679012345679,6.91358024691358,0)" xlink:href="#aF"/><use transform="matrix(0.0345679012345679,0,0,0.0345679012345679,13.82716049382716,0)" xlink:href="#aF"/><use transform="matrix(0.0345679012345679,0,0,0.0345679012345679,20.74074074074074,0)" xlink:href="#aG"/><use transform="matrix(0.0345679012345679,0,0,0.0345679012345679,24.85432098765432,0)" xlink:href="#aB"/><use transform="matrix(0.0345679012345679,0,0,0.0345679012345679,31.767901234567898,0)" xlink:href="#aD"/><use transform="matrix(0.0345679012345679,0,0,0.0345679012345679,37.99012345679011,0)" xlink:href="#aD"/><use transform="matrix(0.0345679012345679,0,0,0.0345679012345679,44.21234567901234,0)" xlink:href="#aC"/></g><use transform="matrix(0.03703703703703703,0,0,0.03703703703703703,0,0)" xlink:href="#ax" id="i"/><path d="M115-194c53 0 69 39 70 98 0 66-23 100-70 100C84 3 66-7 56-30L54 0H23l1-261h32v101c10-23 28-34 59-34zm-8 174c40 0 45-34 45-75 0-40-5-75-45-74-42 0-51 32-51 76 0 43 10 73 51 73" id="aJ"/><path d="M100-194c62-1 85 37 85 99 1 63-27 99-86 99S16-35 15-95c0-66 28-99 85-99zM99-20c44 1 53-31 53-75 0-43-8-75-51-75s-53 32-53 75 10 74 51 75" id="aK"/><path d="M143 0L79-87 56-68V0H24v-261h32v163l83-92h37l-77 82L181 0h-38" id="aL"/><g id="j"><use transform="matrix(0.03703703703703703,0,0,0.03703703703703703,0,0)" xlink:href="#aJ"/><use transform="matrix(0.03703703703703703,0,0,0.03703703703703703,7.407407407407406,0)" xlink:href="#aK"/><use transform="matrix(0.03703703703703703,0,0,0.03703703703703703,14.814814814814811,0)" xlink:href="#aK"/><use transform="matrix(0.03703703703703703,0,0,0.03703703703703703,22.222222222222218,0)" xlink:href="#aL"/><use transform="matrix(0.03703703703703703,0,0,0.03703703703703703,28.888888888888882,0)" xlink:href="#aD"/><use transform="matrix(0.03703703703703703,0,0,0.03703703703703703,35.55555555555555,0)" xlink:href="#aC"/></g><path d="M108 0H70L1-190h34L89-25l56-165h34" id="aM"/><path d="M96-169c-40 0-48 33-48 73s9 75 48 75c24 0 41-14 43-38l32 2c-6 37-31 61-74 61-59 0-76-41-82-99-10-93 101-131 147-64 4 7 5 14 7 22l-32 3c-4-21-16-35-41-35" id="aN"/><path d="M18-100v-36l175-74v27L42-118l151 64v27" id="aO"/><path d="M160-131c35 5 61 23 61 61C221 17 115-2 30 0v-248c76 3 177-17 177 60 0 33-19 50-47 57zm-97-11c50-1 110 9 110-42 0-47-63-36-110-37v79zm0 115c55-2 124 14 124-45 0-56-70-42-124-44v89" id="aP"/><path d="M18-27v-27l151-64-151-65v-27l175 74v36" id="aQ"/><g id="k"><use transform="matrix(0.03703703703703703,0,0,0.03703703703703703,0,0)" xlink:href="#aD"/><use transform="matrix(0.03703703703703703,0,0,0.03703703703703703,6.666666666666665,0)" xlink:href="#aE"/><use transform="matrix(0.03703703703703703,0,0,0.03703703703703703,10.370370370370368,0)" xlink:href="#aF"/><use transform="matrix(0.03703703703703703,0,0,0.03703703703703703,17.777777777777775,0)" xlink:href="#aC"/><use transform="matrix(0.03703703703703703,0,0,0.03703703703703703,21.481481481481477,0)" xlink:href="#aC"/><use transform="matrix(0.03703703703703703,0,0,0.03703703703703703,25.18518518518518,0)" xlink:href="#aM"/><use transform="matrix(0.03703703703703703,0,0,0.03703703703703703,31.851851851851844,0)" xlink:href="#aB"/><use transform="matrix(0.03703703703703703,0,0,0.03703703703703703,39.25925925925925,0)" xlink:href="#aN"/><use transform="matrix(0.03703703703703703,0,0,0.03703703703703703,45.92592592592592,0)" xlink:href="#aE"/><use transform="matrix(0.03703703703703703,0,0,0.03703703703703703,49.62962962962962,0)" xlink:href="#aK"/><use transform="matrix(0.03703703703703703,0,0,0.03703703703703703,57.037037037037024,0)" xlink:href="#aG"/><use transform="matrix(0.03703703703703703,0,0,0.03703703703703703,61.44444444444443,0)" xlink:href="#aO"/><use transform="matrix(0.03703703703703703,0,0,0.03703703703703703,69.2222222222222,0)" xlink:href="#aP"/><use transform="matrix(0.03703703703703703,0,0,0.03703703703703703,78.11111111111109,0)" xlink:href="#aK"/><use transform="matrix(0.03703703703703703,0,0,0.03703703703703703,85.5185185185185,0)" xlink:href="#aK"/><use transform="matrix(0.03703703703703703,0,0,0.03703703703703703,92.92592592592591,0)" xlink:href="#aL"/><use transform="matrix(0.03703703703703703,0,0,0.03703703703703703,99.59259259259257,0)" xlink:href="#aQ"/></g><use transform="matrix(0.0345679012345679,0,0,0.0345679012345679,0,0)" xlink:href="#ax" id="m"/><g id="n"><use transform="matrix(0.0345679012345679,0,0,0.0345679012345679,0,0)" xlink:href="#aA"/><use transform="matrix(0.0345679012345679,0,0,0.0345679012345679,10.335802469135801,0)" xlink:href="#aB"/><use transform="matrix(0.0345679012345679,0,0,0.0345679012345679,17.249382716049382,0)" xlink:href="#aA"/><use transform="matrix(0.0345679012345679,0,0,0.0345679012345679,27.585185185185182,0)" xlink:href="#aJ"/><use transform="matrix(0.0345679012345679,0,0,0.0345679012345679,34.498765432098764,0)" xlink:href="#aB"/><use transform="matrix(0.0345679012345679,0,0,0.0345679012345679,41.41234567901235,0)" xlink:href="#aG"/><use transform="matrix(0.0345679012345679,0,0,0.0345679012345679,45.52592592592592,0)" xlink:href="#aD"/><use transform="matrix(0.0345679012345679,0,0,0.0345679012345679,51.74814814814815,0)" xlink:href="#aC"/></g><path d="M240 0l2-218c-23 76-54 145-80 218h-23L58-218 59 0H30v-248h44l77 211c21-75 51-140 76-211h43V0h-30" id="aR"/><g id="o"><use transform="matrix(0.0345679012345679,0,0,0.0345679012345679,0,0)" xlink:href="#aD"/><use transform="matrix(0.0345679012345679,0,0,0.0345679012345679,6.222222222222221,0)" xlink:href="#aE"/><use transform="matrix(0.0345679012345679,0,0,0.0345679012345679,9.679012345679011,0)" xlink:href="#aF"/><use transform="matrix(0.0345679012345679,0,0,0.0345679012345679,16.59259259259259,0)" xlink:href="#aC"/><use transform="matrix(0.0345679012345679,0,0,0.0345679012345679,20.049382716049386,0)" xlink:href="#aC"/><use transform="matrix(0.0345679012345679,0,0,0.0345679012345679,23.506172839506174,0)" xlink:href="#aM"/><use transform="matrix(0.0345679012345679,0,0,0.0345679012345679,29.728395061728396,0)" xlink:href="#aB"/><use transform="matrix(0.0345679012345679,0,0,0.0345679012345679,36.641975308641975,0)" xlink:href="#aN"/><use transform="matrix(0.0345679012345679,0,0,0.0345679012345679,42.864197530864196,0)" xlink:href="#aE"/><use transform="matrix(0.0345679012345679,0,0,0.0345679012345679,46.320987654320994,0)" xlink:href="#aK"/><use transform="matrix(0.0345679012345679,0,0,0.0345679012345679,53.23456790123457,0)" xlink:href="#aG"/><use transform="matrix(0.0345679012345679,0,0,0.0345679012345679,57.34814814814815,0)" xlink:href="#aO"/><use transform="matrix(0.0345679012345679,0,0,0.0345679012345679,64.60740740740741,0)" xlink:href="#aR"/><use transform="matrix(0.0345679012345679,0,0,0.0345679012345679,74.94320987654321,0)" xlink:href="#aB"/><use transform="matrix(0.0345679012345679,0,0,0.0345679012345679,81.85679012345678,0)" xlink:href="#aA"/><use transform="matrix(0.0345679012345679,0,0,0.0345679012345679,92.19259259259259,0)" xlink:href="#aJ"/><use transform="matrix(0.0345679012345679,0,0,0.0345679012345679,99.10617283950617,0)" xlink:href="#aB"/><use transform="matrix(0.0345679012345679,0,0,0.0345679012345679,106.01975308641975,0)" xlink:href="#aG"/><use transform="matrix(0.0345679012345679,0,0,0.0345679012345679,110.13333333333334,0)" xlink:href="#aQ"/></g><path d="M118-107v75H92v-75H18v-26h74v-75h26v75h74v26h-74" id="aS"/><use transform="matrix(0.03703703703703704,0,0,0.03703703703703704,0,0)" xlink:href="#aS" id="p"/><path d="M87 75C49 33 22-17 22-94c0-76 28-126 65-167h31c-38 41-64 92-64 168S80 34 118 75H87" id="aT"/><path d="M33-261c38 41 65 92 65 168S71 34 33 75H2C39 34 66-17 66-93S39-220 2-261h31" id="aU"/><g id="q"><use transform="matrix(0.03703703703703704,0,0,0.03703703703703704,0,0)" xlink:href="#az"/><use transform="matrix(0.03703703703703704,0,0,0.03703703703703704,7.407407407407408,0)" xlink:href="#aF"/><use transform="matrix(0.03703703703703704,0,0,0.03703703703703704,14.814814814814817,0)" xlink:href="#aF"/><use transform="matrix(0.03703703703703704,0,0,0.03703703703703704,22.222222222222225,0)" xlink:href="#aP"/><use transform="matrix(0.03703703703703704,0,0,0.03703703703703704,31.111111111111114,0)" xlink:href="#aK"/><use transform="matrix(0.03703703703703704,0,0,0.03703703703703704,38.51851851851851,0)" xlink:href="#aK"/><use transform="matrix(0.03703703703703704,0,0,0.03703703703703704,45.925925925925924,0)" xlink:href="#aL"/><use transform="matrix(0.03703703703703704,0,0,0.03703703703703704,52.59259259259259,0)" xlink:href="#aT"/><use transform="matrix(0.03703703703703704,0,0,0.03703703703703704,57,0)" xlink:href="#aP"/><use transform="matrix(0.03703703703703704,0,0,0.03703703703703704,65.88888888888889,0)" xlink:href="#aK"/><use transform="matrix(0.03703703703703704,0,0,0.03703703703703704,73.29629629629629,0)" xlink:href="#aK"/><use transform="matrix(0.03703703703703704,0,0,0.03703703703703704,80.7037037037037,0)" xlink:href="#aL"/><use transform="matrix(0.03703703703703704,0,0,0.03703703703703704,87.37037037037037,0)" xlink:href="#aU"/><use transform="matrix(0.03703703703703704,0,0,0.03703703703703704,91.77777777777777,0)" xlink:href="#aC"/></g><g id="r"><use transform="matrix(0.03703703703703704,0,0,0.03703703703703704,0,0)" xlink:href="#aM"/><use transform="matrix(0.03703703703703704,0,0,0.03703703703703704,6.666666666666668,0)" xlink:href="#aK"/><use transform="matrix(0.03703703703703704,0,0,0.03703703703703704,14.074074074074076,0)" xlink:href="#aH"/><use transform="matrix(0.03703703703703704,0,0,0.03703703703703704,17.000000000000004,0)" xlink:href="#aF"/></g><use transform="matrix(0.03703703703703704,0,0,0.03703703703703704,0,0)" xlink:href="#aS" id="t"/><g id="u"><use transform="matrix(0.03703703703703704,0,0,0.03703703703703704,0,0)" xlink:href="#aG"/><use transform="matrix(0.03703703703703704,0,0,0.03703703703703704,4.407407407407408,0)" xlink:href="#aB"/><use transform="matrix(0.03703703703703704,0,0,0.03703703703703704,11.814814814814817,0)" xlink:href="#aA"/><use transform="matrix(0.03703703703703704,0,0,0.03703703703703704,22.888888888888893,0)" xlink:href="#aK"/><use transform="matrix(0.03703703703703704,0,0,0.03703703703703704,30.2962962962963,0)" xlink:href="#aM"/><use transform="matrix(0.03703703703703704,0,0,0.03703703703703704,36.96296296296297,0)" xlink:href="#aB"/><use transform="matrix(0.03703703703703704,0,0,0.03703703703703704,44.37037037037039,0)" xlink:href="#aP"/><use transform="matrix(0.03703703703703704,0,0,0.03703703703703704,53.25925925925927,0)" xlink:href="#aK"/><use transform="matrix(0.03703703703703704,0,0,0.03703703703703704,60.66666666666667,0)" xlink:href="#aK"/><use transform="matrix(0.03703703703703704,0,0,0.03703703703703704,68.07407407407408,0)" xlink:href="#aL"/><use transform="matrix(0.03703703703703704,0,0,0.03703703703703704,74.74074074074075,0)" xlink:href="#aT"/><use transform="matrix(0.03703703703703704,0,0,0.03703703703703704,79.14814814814815,0)" xlink:href="#aP"/><use transform="matrix(0.03703703703703704,0,0,0.03703703703703704,88.03703703703704,0)" xlink:href="#aK"/><use transform="matrix(0.03703703703703704,0,0,0.03703703703703704,95.44444444444444,0)" xlink:href="#aK"/><use transform="matrix(0.03703703703703704,0,0,0.03703703703703704,102.85185185185185,0)" xlink:href="#aL"/><use transform="matrix(0.03703703703703704,0,0,0.03703703703703704,109.51851851851852,0)" xlink:href="#aU"/><use transform="matrix(0.03703703703703704,0,0,0.03703703703703704,113.92592592592592,0)" xlink:href="#aC"/></g><use transform="matrix(0.0345679012345679,0,0,0.0345679012345679,0,0)" xlink:href="#aS" id="w"/><g id="x"><use transform="matrix(0.0345679012345679,0,0,0.0345679012345679,0,0)" xlink:href="#aG"/><use transform="matrix(0.0345679012345679,0,0,0.0345679012345679,4.11358024691358,0)" xlink:href="#aB"/><use transform="matrix(0.0345679012345679,0,0,0.0345679012345679,11.02716049382716,0)" xlink:href="#aI"/><use transform="matrix(0.0345679012345679,0,0,0.0345679012345679,17.94074074074074,0)" xlink:href="#aH"/><use transform="matrix(0.0345679012345679,0,0,0.0345679012345679,20.671604938271603,0)" xlink:href="#aD"/><use transform="matrix(0.0345679012345679,0,0,0.0345679012345679,26.893827160493824,0)" xlink:href="#aE"/><use transform="matrix(0.0345679012345679,0,0,0.0345679012345679,30.350617283950616,0)" xlink:href="#aB"/><use transform="matrix(0.0345679012345679,0,0,0.0345679012345679,37.264197530864195,0)" xlink:href="#aG"/><use transform="matrix(0.0345679012345679,0,0,0.0345679012345679,41.37777777777777,0)" xlink:href="#aR"/><use transform="matrix(0.0345679012345679,0,0,0.0345679012345679,51.71358024691357,0)" xlink:href="#aB"/><use transform="matrix(0.0345679012345679,0,0,0.0345679012345679,58.627160493827155,0)" xlink:href="#aA"/><use transform="matrix(0.0345679012345679,0,0,0.0345679012345679,68.96296296296296,0)" xlink:href="#aJ"/><use transform="matrix(0.0345679012345679,0,0,0.0345679012345679,75.87654320987656,0)" xlink:href="#aB"/><use transform="matrix(0.0345679012345679,0,0,0.0345679012345679,82.79012345679013,0)" xlink:href="#aG"/><use transform="matrix(0.0345679012345679,0,0,0.0345679012345679,86.90370370370371,0)" xlink:href="#aT"/><use transform="matrix(0.0345679012345679,0,0,0.0345679012345679,91.0172839506173,0)" xlink:href="#aR"/><use transform="matrix(0.0345679012345679,0,0,0.0345679012345679,101.3530864197531,0)" xlink:href="#aB"/><use transform="matrix(0.0345679012345679,0,0,0.0345679012345679,108.2666666666667,0)" xlink:href="#aA"/><use transform="matrix(0.0345679012345679,0,0,0.0345679012345679,118.60246913580248,0)" xlink:href="#aJ"/><use transform="matrix(0.0345679012345679,0,0,0.0345679012345679,125.51604938271606,0)" xlink:href="#aB"/><use transform="matrix(0.0345679012345679,0,0,0.0345679012345679,132.42962962962963,0)" xlink:href="#aG"/><use transform="matrix(0.0345679012345679,0,0,0.0345679012345679,136.54320987654322,0)" xlink:href="#aU"/><use transform="matrix(0.0345679012345679,0,0,0.0345679012345679,140.6567901234568,0)" xlink:href="#aC"/></g><g id="y"><use transform="matrix(0.0345679012345679,0,0,0.0345679012345679,0,0)" xlink:href="#aM"/><use transform="matrix(0.0345679012345679,0,0,0.0345679012345679,6.222222222222221,0)" xlink:href="#aK"/><use transform="matrix(0.0345679012345679,0,0,0.0345679012345679,13.1358024691358,0)" xlink:href="#aH"/><use transform="matrix(0.0345679012345679,0,0,0.0345679012345679,15.866666666666664,0)" xlink:href="#aF"/></g><path d="M84 4C-5 8 30-112 23-190h32v120c0 31 7 50 39 49 72-2 45-101 50-169h31l1 190h-30c-1-10 1-25-2-33-11 22-28 36-60 37" id="aV"/><path d="M68-38c1 34 0 65-14 84H32c9-13 17-26 17-46H33v-38h35" id="aW"/><g id="A"><use transform="matrix(0.0345679012345679,0,0,0.0345679012345679,0,0)" xlink:href="#aH"/><use transform="matrix(0.0345679012345679,0,0,0.0345679012345679,2.730864197530864,0)" xlink:href="#aD"/><use transform="matrix(0.0345679012345679,0,0,0.0345679012345679,8.953086419753086,0)" xlink:href="#aD"/><use transform="matrix(0.0345679012345679,0,0,0.0345679012345679,15.175308641975306,0)" xlink:href="#aV"/><use transform="matrix(0.0345679012345679,0,0,0.0345679012345679,22.088888888888885,0)" xlink:href="#aB"/><use transform="matrix(0.0345679012345679,0,0,0.0345679012345679,29.002469135802464,0)" xlink:href="#aP"/><use transform="matrix(0.0345679012345679,0,0,0.0345679012345679,37.29876543209876,0)" xlink:href="#aK"/><use transform="matrix(0.0345679012345679,0,0,0.0345679012345679,44.212345679012344,0)" xlink:href="#aK"/><use transform="matrix(0.0345679012345679,0,0,0.0345679012345679,51.12592592592593,0)" xlink:href="#aL"/><use transform="matrix(0.0345679012345679,0,0,0.0345679012345679,57.34814814814815,0)" xlink:href="#aT"/><use transform="matrix(0.0345679012345679,0,0,0.0345679012345679,61.46172839506172,0)" xlink:href="#aR"/><use transform="matrix(0.0345679012345679,0,0,0.0345679012345679,71.79753086419753,0)" xlink:href="#aB"/><use transform="matrix(0.0345679012345679,0,0,0.0345679012345679,78.71111111111111,0)" xlink:href="#aA"/><use transform="matrix(0.0345679012345679,0,0,0.0345679012345679,89.04691358024691,0)" xlink:href="#aJ"/><use transform="matrix(0.0345679012345679,0,0,0.0345679012345679,95.96049382716049,0)" xlink:href="#aB"/><use transform="matrix(0.0345679012345679,0,0,0.0345679012345679,102.87407407407407,0)" xlink:href="#aG"/><use transform="matrix(0.0345679012345679,0,0,0.0345679012345679,106.2962962962963,0)" xlink:href="#aW"/></g><g id="B"><use transform="matrix(0.0345679012345679,0,0,0.0345679012345679,0,0)" xlink:href="#aP"/><use transform="matrix(0.0345679012345679,0,0,0.0345679012345679,8.296296296296296,0)" xlink:href="#aK"/><use transform="matrix(0.0345679012345679,0,0,0.0345679012345679,15.209876543209877,0)" xlink:href="#aK"/><use transform="matrix(0.0345679012345679,0,0,0.0345679012345679,22.123456790123456,0)" xlink:href="#aL"/><use transform="matrix(0.0345679012345679,0,0,0.0345679012345679,28.345679012345677,0)" xlink:href="#aU"/><use transform="matrix(0.0345679012345679,0,0,0.0345679012345679,32.459259259259255,0)" xlink:href="#aC"/></g><g id="D"><use transform="matrix(0.0345679012345679,0,0,0.0345679012345679,0,0)" xlink:href="#aG"/><use transform="matrix(0.0345679012345679,0,0,0.0345679012345679,4.11358024691358,0)" xlink:href="#aB"/><use transform="matrix(0.0345679012345679,0,0,0.0345679012345679,11.02716049382716,0)" xlink:href="#aE"/><use transform="matrix(0.0345679012345679,0,0,0.0345679012345679,14.483950617283952,0)" xlink:href="#aV"/><use transform="matrix(0.0345679012345679,0,0,0.0345679012345679,21.39753086419753,0)" xlink:href="#aG"/><use transform="matrix(0.0345679012345679,0,0,0.0345679012345679,25.511111111111113,0)" xlink:href="#ay"/><use transform="matrix(0.0345679012345679,0,0,0.0345679012345679,32.424691358024695,0)" xlink:href="#aP"/><use transform="matrix(0.0345679012345679,0,0,0.0345679012345679,40.72098765432099,0)" xlink:href="#aK"/><use transform="matrix(0.0345679012345679,0,0,0.0345679012345679,47.634567901234576,0)" xlink:href="#aK"/><use transform="matrix(0.0345679012345679,0,0,0.0345679012345679,54.54814814814816,0)" xlink:href="#aL"/><use transform="matrix(0.0345679012345679,0,0,0.0345679012345679,60.77037037037038,0)" xlink:href="#aT"/><use transform="matrix(0.0345679012345679,0,0,0.0345679012345679,64.88395061728396,0)" xlink:href="#aR"/><use transform="matrix(0.0345679012345679,0,0,0.0345679012345679,75.21975308641976,0)" xlink:href="#aB"/><use transform="matrix(0.0345679012345679,0,0,0.0345679012345679,82.13333333333334,0)" xlink:href="#aA"/><use transform="matrix(0.0345679012345679,0,0,0.0345679012345679,92.46913580246914,0)" xlink:href="#aJ"/><use transform="matrix(0.0345679012345679,0,0,0.0345679012345679,99.38271604938272,0)" xlink:href="#aB"/><use transform="matrix(0.0345679012345679,0,0,0.0345679012345679,106.2962962962963,0)" xlink:href="#aG"/><use transform="matrix(0.0345679012345679,0,0,0.0345679012345679,109.71851851851854,0)" xlink:href="#aW"/></g><path fill="#3a414a" d="M160-131c35 5 61 23 61 61C221 17 115-2 30 0v-248c76 3 177-17 177 60 0 33-19 50-47 57zm-97-11c50-1 110 9 110-42 0-47-63-36-110-37v79zm0 115c55-2 124 14 124-45 0-56-70-42-124-44v89" id="aX"/><path fill="#3a414a" d="M100-194c62-1 85 37 85 99 1 63-27 99-86 99S16-35 15-95c0-66 28-99 85-99zM99-20c44 1 53-31 53-75 0-43-8-75-51-75s-53 32-53 75 10 74 51 75" id="aY"/><path fill="#3a414a" d="M143 0L79-87 56-68V0H24v-261h32v163l83-92h37l-77 82L181 0h-38" id="aZ"/><g id="E"><use transform="matrix(0.06172839506172839,0,0,0.06172839506172839,0,0)" xlink:href="#aX"/><use transform="matrix(0.06172839506172839,0,0,0.06172839506172839,14.814814814814813,0)" xlink:href="#aY"/><use transform="matrix(0.06172839506172839,0,0,0.06172839506172839,27.160493827160494,0)" xlink:href="#aY"/><use transform="matrix(0.06172839506172839,0,0,0.06172839506172839,39.50617283950617,0)" xlink:href="#aZ"/></g><path d="M24 0v-261h32V0H24" id="ba"/><g id="G"><use transform="matrix(0.0345679012345679,0,0,0.0345679012345679,0,0)" xlink:href="#aE"/><use transform="matrix(0.0345679012345679,0,0,0.0345679012345679,3.45679012345679,0)" xlink:href="#aH"/><use transform="matrix(0.0345679012345679,0,0,0.0345679012345679,6.187654320987654,0)" xlink:href="#aE"/><use transform="matrix(0.0345679012345679,0,0,0.0345679012345679,9.644444444444444,0)" xlink:href="#ba"/><use transform="matrix(0.0345679012345679,0,0,0.0345679012345679,12.375308641975309,0)" xlink:href="#aB"/><use transform="matrix(0.0345679012345679,0,0,0.0345679012345679,19.288888888888888,0)" xlink:href="#aC"/></g><path d="M106-169C34-169 62-67 57 0H25v-261h32l-1 103c12-21 28-36 61-36 89 0 53 116 60 194h-32v-121c2-32-8-49-39-48" id="bb"/><g id="H"><use transform="matrix(0.0345679012345679,0,0,0.0345679012345679,0,0)" xlink:href="#az"/><use transform="matrix(0.0345679012345679,0,0,0.0345679012345679,6.91358024691358,0)" xlink:href="#aV"/><use transform="matrix(0.0345679012345679,0,0,0.0345679012345679,13.82716049382716,0)" xlink:href="#aE"/><use transform="matrix(0.0345679012345679,0,0,0.0345679012345679,17.28395061728395,0)" xlink:href="#bb"/><use transform="matrix(0.0345679012345679,0,0,0.0345679012345679,24.197530864197528,0)" xlink:href="#aK"/><use transform="matrix(0.0345679012345679,0,0,0.0345679012345679,31.111111111111107,0)" xlink:href="#aG"/><use transform="matrix(0.0345679012345679,0,0,0.0345679012345679,35.224691358024685,0)" xlink:href="#aC"/></g><g id="I"><use transform="matrix(0.0345679012345679,0,0,0.0345679012345679,0,0)" xlink:href="#aH"/><use transform="matrix(0.0345679012345679,0,0,0.0345679012345679,2.730864197530864,0)" xlink:href="#aD"/><use transform="matrix(0.0345679012345679,0,0,0.0345679012345679,8.953086419753086,0)" xlink:href="#aJ"/><use transform="matrix(0.0345679012345679,0,0,0.0345679012345679,15.866666666666664,0)" xlink:href="#ay"/><use transform="matrix(0.0345679012345679,0,0,0.0345679012345679,22.780246913580243,0)" xlink:href="#aC"/></g><g id="K"><use transform="matrix(0.0345679012345679,0,0,0.0345679012345679,0,0)" xlink:href="#az"/><use transform="matrix(0.0345679012345679,0,0,0.0345679012345679,6.91358024691358,0)" xlink:href="#aM"/><use transform="matrix(0.0345679012345679,0,0,0.0345679012345679,13.1358024691358,0)" xlink:href="#az"/><use transform="matrix(0.0345679012345679,0,0,0.0345679012345679,20.04938271604938,0)" xlink:href="#aH"/><use transform="matrix(0.0345679012345679,0,0,0.0345679012345679,22.780246913580243,0)" xlink:href="#ba"/><use transform="matrix(0.0345679012345679,0,0,0.0345679012345679,25.511111111111106,0)" xlink:href="#az"/><use transform="matrix(0.0345679012345679,0,0,0.0345679012345679,32.42469135802469,0)" xlink:href="#aJ"/><use transform="matrix(0.0345679012345679,0,0,0.0345679012345679,39.33827160493827,0)" xlink:href="#ba"/><use transform="matrix(0.0345679012345679,0,0,0.0345679012345679,42.069135802469134,0)" xlink:href="#aB"/><use transform="matrix(0.0345679012345679,0,0,0.0345679012345679,48.98271604938272,0)" xlink:href="#aC"/></g><g id="L"><use transform="matrix(0.0345679012345679,0,0,0.0345679012345679,0,0)" xlink:href="#aJ"/><use transform="matrix(0.0345679012345679,0,0,0.0345679012345679,6.91358024691358,0)" xlink:href="#aK"/><use transform="matrix(0.0345679012345679,0,0,0.0345679012345679,13.82716049382716,0)" xlink:href="#aK"/><use transform="matrix(0.0345679012345679,0,0,0.0345679012345679,20.74074074074074,0)" xlink:href="#ba"/></g><use transform="matrix(0.0345679012345679,0,0,0.0345679012345679,0,0)" xlink:href="#aS" id="M"/><path d="M127-220V0H93v-220H8v-28h204v28h-85" id="bc"/><g id="N"><use transform="matrix(0.0345679012345679,0,0,0.0345679012345679,0,0)" xlink:href="#aI"/><use transform="matrix(0.0345679012345679,0,0,0.0345679012345679,6.91358024691358,0)" xlink:href="#aB"/><use transform="matrix(0.0345679012345679,0,0,0.0345679012345679,13.82716049382716,0)" xlink:href="#aE"/><use transform="matrix(0.0345679012345679,0,0,0.0345679012345679,17.28395061728395,0)" xlink:href="#bc"/><use transform="matrix(0.0345679012345679,0,0,0.0345679012345679,24.404938271604937,0)" xlink:href="#aH"/><use transform="matrix(0.0345679012345679,0,0,0.0345679012345679,27.1358024691358,0)" xlink:href="#aE"/><use transform="matrix(0.0345679012345679,0,0,0.0345679012345679,30.592592592592595,0)" xlink:href="#ba"/><use transform="matrix(0.0345679012345679,0,0,0.0345679012345679,33.32345679012346,0)" xlink:href="#aB"/><use transform="matrix(0.0345679012345679,0,0,0.0345679012345679,40.23703703703704,0)" xlink:href="#aT"/><use transform="matrix(0.0345679012345679,0,0,0.0345679012345679,44.35061728395062,0)" xlink:href="#aU"/></g><g id="O"><use transform="matrix(0.0345679012345679,0,0,0.0345679012345679,0,0)" xlink:href="#aN"/><use transform="matrix(0.0345679012345679,0,0,0.0345679012345679,6.222222222222221,0)" xlink:href="#aK"/><use transform="matrix(0.0345679012345679,0,0,0.0345679012345679,13.1358024691358,0)" xlink:href="#ay"/><use transform="matrix(0.0345679012345679,0,0,0.0345679012345679,20.04938271604938,0)" xlink:href="#aD"/><use transform="matrix(0.0345679012345679,0,0,0.0345679012345679,26.2716049382716,0)" xlink:href="#aE"/><use transform="matrix(0.0345679012345679,0,0,0.0345679012345679,29.728395061728392,0)" xlink:href="#aC"/></g><path d="M205 0l-28-72H64L36 0H1l101-248h38L239 0h-34zm-38-99l-47-123c-12 45-31 82-46 123h93" id="bd"/><g id="P"><use transform="matrix(0.0345679012345679,0,0,0.0345679012345679,0,0)" xlink:href="#aI"/><use transform="matrix(0.0345679012345679,0,0,0.0345679012345679,6.91358024691358,0)" xlink:href="#aB"/><use transform="matrix(0.0345679012345679,0,0,0.0345679012345679,13.82716049382716,0)" xlink:href="#aE"/><use transform="matrix(0.0345679012345679,0,0,0.0345679012345679,17.28395061728395,0)" xlink:href="#bd"/><use transform="matrix(0.0345679012345679,0,0,0.0345679012345679,25.580246913580247,0)" xlink:href="#aV"/><use transform="matrix(0.0345679012345679,0,0,0.0345679012345679,32.49382716049383,0)" xlink:href="#aE"/><use transform="matrix(0.0345679012345679,0,0,0.0345679012345679,35.95061728395062,0)" xlink:href="#bb"/><use transform="matrix(0.0345679012345679,0,0,0.0345679012345679,42.8641975308642,0)" xlink:href="#aK"/><use transform="matrix(0.0345679012345679,0,0,0.0345679012345679,49.777777777777786,0)" xlink:href="#aG"/><use transform="matrix(0.0345679012345679,0,0,0.0345679012345679,53.891358024691364,0)" xlink:href="#aT"/><use transform="matrix(0.0345679012345679,0,0,0.0345679012345679,58.00493827160494,0)" xlink:href="#aU"/></g><path d="M33 0v-248h34V0H33" id="be"/><path d="M185-189c-5-48-123-54-124 2 14 75 158 14 163 119 3 78-121 87-175 55-17-10-28-26-33-46l33-7c5 56 141 63 141-1 0-78-155-14-162-118-5-82 145-84 179-34 5 7 8 16 11 25" id="bf"/><path d="M190 0L58-211 59 0H30v-248h39L202-35l-2-213h31V0h-41" id="bg"/><g id="Q"><use transform="matrix(0.0345679012345679,0,0,0.0345679012345679,0,0)" xlink:href="#aI"/><use transform="matrix(0.0345679012345679,0,0,0.0345679012345679,6.91358024691358,0)" xlink:href="#aB"/><use transform="matrix(0.0345679012345679,0,0,0.0345679012345679,13.82716049382716,0)" xlink:href="#aE"/><use transform="matrix(0.0345679012345679,0,0,0.0345679012345679,17.28395061728395,0)" xlink:href="#be"/><use transform="matrix(0.0345679012345679,0,0,0.0345679012345679,20.74074074074074,0)" xlink:href="#bf"/><use transform="matrix(0.0345679012345679,0,0,0.0345679012345679,29.037037037037038,0)" xlink:href="#aP"/><use transform="matrix(0.0345679012345679,0,0,0.0345679012345679,37.333333333333336,0)" xlink:href="#bg"/><use transform="matrix(0.0345679012345679,0,0,0.0345679012345679,46.28641975308642,0)" xlink:href="#aT"/><use transform="matrix(0.0345679012345679,0,0,0.0345679012345679,50.4,0)" xlink:href="#aU"/></g><g id="R"><use transform="matrix(0.0345679012345679,0,0,0.0345679012345679,0,0)" xlink:href="#aH"/><use transform="matrix(0.0345679012345679,0,0,0.0345679012345679,2.730864197530864,0)" xlink:href="#aD"/><use transform="matrix(0.0345679012345679,0,0,0.0345679012345679,8.953086419753086,0)" xlink:href="#bd"/><use transform="matrix(0.0345679012345679,0,0,0.0345679012345679,17.007407407407406,0)" xlink:href="#aM"/><use transform="matrix(0.0345679012345679,0,0,0.0345679012345679,23.229629629629628,0)" xlink:href="#az"/><use transform="matrix(0.0345679012345679,0,0,0.0345679012345679,30.143209876543207,0)" xlink:href="#aH"/><use transform="matrix(0.0345679012345679,0,0,0.0345679012345679,32.87407407407407,0)" xlink:href="#ba"/><use transform="matrix(0.0345679012345679,0,0,0.0345679012345679,35.60493827160494,0)" xlink:href="#az"/><use transform="matrix(0.0345679012345679,0,0,0.0345679012345679,42.51851851851852,0)" xlink:href="#aJ"/><use transform="matrix(0.0345679012345679,0,0,0.0345679012345679,49.4320987654321,0)" xlink:href="#ba"/><use transform="matrix(0.0345679012345679,0,0,0.0345679012345679,52.162962962962965,0)" xlink:href="#aB"/><use transform="matrix(0.0345679012345679,0,0,0.0345679012345679,59.07654320987655,0)" xlink:href="#aT"/><use transform="matrix(0.0345679012345679,0,0,0.0345679012345679,63.190123456790126,0)" xlink:href="#aU"/></g><path d="M179-190L93 31C79 59 56 82 12 73V49c39 6 53-20 64-50L1-190h34L92-34l54-156h33" id="bh"/><g id="S"><use transform="matrix(0.0345679012345679,0,0,0.0345679012345679,0,0)" xlink:href="#aD"/><use transform="matrix(0.0345679012345679,0,0,0.0345679012345679,6.222222222222221,0)" xlink:href="#aB"/><use transform="matrix(0.0345679012345679,0,0,0.0345679012345679,13.1358024691358,0)" xlink:href="#aE"/><use transform="matrix(0.0345679012345679,0,0,0.0345679012345679,16.59259259259259,0)" xlink:href="#bd"/><use transform="matrix(0.0345679012345679,0,0,0.0345679012345679,24.64691358024691,0)" xlink:href="#aM"/><use transform="matrix(0.0345679012345679,0,0,0.0345679012345679,30.86913580246913,0)" xlink:href="#az"/><use transform="matrix(0.0345679012345679,0,0,0.0345679012345679,37.782716049382714,0)" xlink:href="#aH"/><use transform="matrix(0.0345679012345679,0,0,0.0345679012345679,40.51358024691358,0)" xlink:href="#ba"/><use transform="matrix(0.0345679012345679,0,0,0.0345679012345679,43.24444444444444,0)" xlink:href="#az"/><use transform="matrix(0.0345679012345679,0,0,0.0345679012345679,50.15802469135802,0)" xlink:href="#aJ"/><use transform="matrix(0.0345679012345679,0,0,0.0345679012345679,57.071604938271605,0)" xlink:href="#aH"/><use transform="matrix(0.0345679012345679,0,0,0.0345679012345679,59.80246913580247,0)" xlink:href="#ba"/><use transform="matrix(0.0345679012345679,0,0,0.0345679012345679,62.53333333333334,0)" xlink:href="#aH"/><use transform="matrix(0.0345679012345679,0,0,0.0345679012345679,65.2641975308642,0)" xlink:href="#aE"/><use transform="matrix(0.0345679012345679,0,0,0.0345679012345679,68.72098765432098,0)" xlink:href="#bh"/><use transform="matrix(0.0345679012345679,0,0,0.0345679012345679,74.9432098765432,0)" xlink:href="#aT"/><use transform="matrix(0.0345679012345679,0,0,0.0345679012345679,79.05679012345678,0)" xlink:href="#aJ"/><use transform="matrix(0.0345679012345679,0,0,0.0345679012345679,85.97037037037036,0)" xlink:href="#aK"/><use transform="matrix(0.0345679012345679,0,0,0.0345679012345679,92.88395061728394,0)" xlink:href="#aK"/><use transform="matrix(0.0345679012345679,0,0,0.0345679012345679,99.79753086419753,0)" xlink:href="#ba"/><use transform="matrix(0.0345679012345679,0,0,0.0345679012345679,102.52839506172839,0)" xlink:href="#aU"/><use transform="matrix(0.0345679012345679,0,0,0.0345679012345679,106.64197530864197,0)" xlink:href="#aC"/></g><path fill="#3a414a" d="M240 0l2-218c-23 76-54 145-80 218h-23L58-218 59 0H30v-248h44l77 211c21-75 51-140 76-211h43V0h-30" id="bi"/><path fill="#3a414a" d="M100-194c63 0 86 42 84 106H49c0 40 14 67 53 68 26 1 43-12 49-29l28 8c-11 28-37 45-77 45C44 4 14-33 15-96c1-61 26-98 85-98zm52 81c6-60-76-77-97-28-3 7-6 17-6 28h103" id="bj"/><path fill="#3a414a" d="M210-169c-67 3-38 105-44 169h-31v-121c0-29-5-50-35-48C34-165 62-65 56 0H25l-1-190h30c1 10-1 24 2 32 10-44 99-50 107 0 11-21 27-35 58-36 85-2 47 119 55 194h-31v-121c0-29-5-49-35-48" id="bk"/><g id="T"><use transform="matrix(0.06172839506172839,0,0,0.06172839506172839,0,0)" xlink:href="#bi"/><use transform="matrix(0.06172839506172839,0,0,0.06172839506172839,18.456790123456788,0)" xlink:href="#bj"/><use transform="matrix(0.06172839506172839,0,0,0.06172839506172839,30.80246913580247,0)" xlink:href="#bk"/><use transform="matrix(0.06172839506172839,0,0,0.06172839506172839,49.25925925925925,0)" xlink:href="#at"/><use transform="matrix(0.06172839506172839,0,0,0.06172839506172839,61.60493827160493,0)" xlink:href="#bj"/><use transform="matrix(0.06172839506172839,0,0,0.06172839506172839,73.9506172839506,0)" xlink:href="#au"/></g><g id="V"><use transform="matrix(0.0345679012345679,0,0,0.0345679012345679,0,0)" xlink:href="#aA"/><use transform="matrix(0.0345679012345679,0,0,0.0345679012345679,10.335802469135801,0)" xlink:href="#aB"/><use transform="matrix(0.0345679012345679,0,0,0.0345679012345679,17.249382716049382,0)" xlink:href="#aA"/><use transform="matrix(0.0345679012345679,0,0,0.0345679012345679,27.585185185185182,0)" xlink:href="#aJ"/><use transform="matrix(0.0345679012345679,0,0,0.0345679012345679,34.498765432098764,0)" xlink:href="#aB"/><use transform="matrix(0.0345679012345679,0,0,0.0345679012345679,41.41234567901235,0)" xlink:href="#aG"/><use transform="matrix(0.0345679012345679,0,0,0.0345679012345679,45.52592592592592,0)" xlink:href="#be"/><use transform="matrix(0.0345679012345679,0,0,0.0345679012345679,48.98271604938272,0)" xlink:href="#aF"/><use transform="matrix(0.0345679012345679,0,0,0.0345679012345679,55.8962962962963,0)" xlink:href="#aC"/></g><g id="W"><use transform="matrix(0.0345679012345679,0,0,0.0345679012345679,0,0)" xlink:href="#aH"/><use transform="matrix(0.0345679012345679,0,0,0.0345679012345679,2.730864197530864,0)" xlink:href="#ay"/><use transform="matrix(0.0345679012345679,0,0,0.0345679012345679,9.644444444444444,0)" xlink:href="#aE"/></g><path d="M206 0h-36l-40-164L89 0H53L-1-190h32L70-26l43-164h34l41 164 42-164h31" id="bl"/><g id="X"><use transform="matrix(0.0345679012345679,0,0,0.0345679012345679,0,0)" xlink:href="#aJ"/><use transform="matrix(0.0345679012345679,0,0,0.0345679012345679,6.91358024691358,0)" xlink:href="#aK"/><use transform="matrix(0.0345679012345679,0,0,0.0345679012345679,13.82716049382716,0)" xlink:href="#aG"/><use transform="matrix(0.0345679012345679,0,0,0.0345679012345679,17.94074074074074,0)" xlink:href="#aG"/><use transform="matrix(0.0345679012345679,0,0,0.0345679012345679,22.05432098765432,0)" xlink:href="#aK"/><use transform="matrix(0.0345679012345679,0,0,0.0345679012345679,28.967901234567904,0)" xlink:href="#bl"/><use transform="matrix(0.0345679012345679,0,0,0.0345679012345679,37.92098765432099,0)" xlink:href="#aB"/><use transform="matrix(0.0345679012345679,0,0,0.0345679012345679,44.83456790123457,0)" xlink:href="#aF"/><use transform="matrix(0.0345679012345679,0,0,0.0345679012345679,51.748148148148154,0)" xlink:href="#aP"/><use transform="matrix(0.0345679012345679,0,0,0.0345679012345679,60.04444444444445,0)" xlink:href="#aK"/><use transform="matrix(0.0345679012345679,0,0,0.0345679012345679,66.95802469135803,0)" xlink:href="#aK"/><use transform="matrix(0.0345679012345679,0,0,0.0345679012345679,73.87160493827162,0)" xlink:href="#aL"/><use transform="matrix(0.0345679012345679,0,0,0.0345679012345679,80.09382716049384,0)" xlink:href="#aD"/><use transform="matrix(0.0345679012345679,0,0,0.0345679012345679,86.31604938271607,0)" xlink:href="#aC"/></g><g id="Y"><use transform="matrix(0.0345679012345679,0,0,0.0345679012345679,0,0)" xlink:href="#aD"/><use transform="matrix(0.0345679012345679,0,0,0.0345679012345679,6.222222222222221,0)" xlink:href="#aE"/><use transform="matrix(0.0345679012345679,0,0,0.0345679012345679,9.679012345679011,0)" xlink:href="#aF"/><use transform="matrix(0.0345679012345679,0,0,0.0345679012345679,16.59259259259259,0)" xlink:href="#aC"/><use transform="matrix(0.0345679012345679,0,0,0.0345679012345679,20.049382716049386,0)" xlink:href="#aC"/><use transform="matrix(0.0345679012345679,0,0,0.0345679012345679,23.506172839506174,0)" xlink:href="#aM"/><use transform="matrix(0.0345679012345679,0,0,0.0345679012345679,29.728395061728396,0)" xlink:href="#aB"/><use transform="matrix(0.0345679012345679,0,0,0.0345679012345679,36.641975308641975,0)" xlink:href="#aN"/><use transform="matrix(0.0345679012345679,0,0,0.0345679012345679,42.864197530864196,0)" xlink:href="#aE"/><use transform="matrix(0.0345679012345679,0,0,0.0345679012345679,46.320987654320994,0)" xlink:href="#aK"/><use transform="matrix(0.0345679012345679,0,0,0.0345679012345679,53.23456790123457,0)" xlink:href="#aG"/><use transform="matrix(0.0345679012345679,0,0,0.0345679012345679,57.34814814814815,0)" xlink:href="#aO"/><use transform="matrix(0.0345679012345679,0,0,0.0345679012345679,64.60740740740741,0)" xlink:href="#aP"/><use transform="matrix(0.0345679012345679,0,0,0.0345679012345679,72.9037037037037,0)" xlink:href="#aK"/><use transform="matrix(0.0345679012345679,0,0,0.0345679012345679,79.81728395061728,0)" xlink:href="#aK"/><use transform="matrix(0.0345679012345679,0,0,0.0345679012345679,86.73086419753085,0)" xlink:href="#aL"/><use transform="matrix(0.0345679012345679,0,0,0.0345679012345679,92.95308641975308,0)" xlink:href="#aQ"/></g><g id="Z"><use transform="matrix(0.0345679012345679,0,0,0.0345679012345679,0,0)" xlink:href="#aI"/><use transform="matrix(0.0345679012345679,0,0,0.0345679012345679,6.91358024691358,0)" xlink:href="#aB"/><use transform="matrix(0.0345679012345679,0,0,0.0345679012345679,13.82716049382716,0)" xlink:href="#aE"/><use transform="matrix(0.0345679012345679,0,0,0.0345679012345679,17.28395061728395,0)" xlink:href="#bg"/><use transform="matrix(0.0345679012345679,0,0,0.0345679012345679,26.237037037037034,0)" xlink:href="#az"/><use transform="matrix(0.0345679012345679,0,0,0.0345679012345679,33.150617283950616,0)" xlink:href="#aA"/><use transform="matrix(0.0345679012345679,0,0,0.0345679012345679,43.486419753086416,0)" xlink:href="#aB"/><use transform="matrix(0.0345679012345679,0,0,0.0345679012345679,50.4,0)" xlink:href="#aT"/><use transform="matrix(0.0345679012345679,0,0,0.0345679012345679,54.51358024691358,0)" xlink:href="#aU"/></g><g id="aa"><use transform="matrix(0.0345679012345679,0,0,0.0345679012345679,0,0)" xlink:href="#aI"/><use transform="matrix(0.0345679012345679,0,0,0.0345679012345679,6.91358024691358,0)" xlink:href="#aB"/><use transform="matrix(0.0345679012345679,0,0,0.0345679012345679,13.82716049382716,0)" xlink:href="#aE"/><use transform="matrix(0.0345679012345679,0,0,0.0345679012345679,17.28395061728395,0)" xlink:href="#aR"/><use transform="matrix(0.0345679012345679,0,0,0.0345679012345679,27.61975308641975,0)" xlink:href="#aB"/><use transform="matrix(0.0345679012345679,0,0,0.0345679012345679,34.53333333333333,0)" xlink:href="#aA"/><use transform="matrix(0.0345679012345679,0,0,0.0345679012345679,44.86913580246913,0)" xlink:href="#aJ"/><use transform="matrix(0.0345679012345679,0,0,0.0345679012345679,51.782716049382714,0)" xlink:href="#aB"/><use transform="matrix(0.0345679012345679,0,0,0.0345679012345679,58.696296296296296,0)" xlink:href="#aG"/><use transform="matrix(0.0345679012345679,0,0,0.0345679012345679,62.80987654320987,0)" xlink:href="#be"/><use transform="matrix(0.0345679012345679,0,0,0.0345679012345679,66.26666666666667,0)" xlink:href="#aF"/><use transform="matrix(0.0345679012345679,0,0,0.0345679012345679,73.18024691358026,0)" xlink:href="#aT"/><use transform="matrix(0.0345679012345679,0,0,0.0345679012345679,77.29382716049383,0)" xlink:href="#aU"/></g><g id="ab"><use transform="matrix(0.0345679012345679,0,0,0.0345679012345679,0,0)" xlink:href="#aJ"/><use transform="matrix(0.0345679012345679,0,0,0.0345679012345679,6.91358024691358,0)" xlink:href="#aK"/><use transform="matrix(0.0345679012345679,0,0,0.0345679012345679,13.82716049382716,0)" xlink:href="#aG"/><use transform="matrix(0.0345679012345679,0,0,0.0345679012345679,17.94074074074074,0)" xlink:href="#aG"/><use transform="matrix(0.0345679012345679,0,0,0.0345679012345679,22.05432098765432,0)" xlink:href="#aK"/><use transform="matrix(0.0345679012345679,0,0,0.0345679012345679,28.967901234567904,0)" xlink:href="#bl"/><use transform="matrix(0.0345679012345679,0,0,0.0345679012345679,37.92098765432099,0)" xlink:href="#aP"/><use transform="matrix(0.0345679012345679,0,0,0.0345679012345679,46.217283950617286,0)" xlink:href="#aK"/><use transform="matrix(0.0345679012345679,0,0,0.0345679012345679,53.13086419753087,0)" xlink:href="#aK"/><use transform="matrix(0.0345679012345679,0,0,0.0345679012345679,60.04444444444445,0)" xlink:href="#aL"/><use transform="matrix(0.0345679012345679,0,0,0.0345679012345679,66.26666666666668,0)" xlink:href="#aT"/><use transform="matrix(0.0345679012345679,0,0,0.0345679012345679,70.38024691358027,0)" xlink:href="#aP"/><use transform="matrix(0.0345679012345679,0,0,0.0345679012345679,78.67654320987656,0)" xlink:href="#aK"/><use transform="matrix(0.0345679012345679,0,0,0.0345679012345679,85.59012345679012,0)" xlink:href="#aK"/><use transform="matrix(0.0345679012345679,0,0,0.0345679012345679,92.50370370370372,0)" xlink:href="#aL"/><use transform="matrix(0.0345679012345679,0,0,0.0345679012345679,98.72592592592594,0)" xlink:href="#aU"/><use transform="matrix(0.0345679012345679,0,0,0.0345679012345679,102.83950617283953,0)" xlink:href="#aC"/></g><g id="ac"><use transform="matrix(0.0345679012345679,0,0,0.0345679012345679,0,0)" xlink:href="#aG"/><use transform="matrix(0.0345679012345679,0,0,0.0345679012345679,4.11358024691358,0)" xlink:href="#aB"/><use transform="matrix(0.0345679012345679,0,0,0.0345679012345679,11.02716049382716,0)" xlink:href="#aE"/><use transform="matrix(0.0345679012345679,0,0,0.0345679012345679,14.483950617283952,0)" xlink:href="#aV"/><use transform="matrix(0.0345679012345679,0,0,0.0345679012345679,21.39753086419753,0)" xlink:href="#aG"/><use transform="matrix(0.0345679012345679,0,0,0.0345679012345679,25.511111111111113,0)" xlink:href="#ay"/><use transform="matrix(0.0345679012345679,0,0,0.0345679012345679,32.424691358024695,0)" xlink:href="#aP"/><use transform="matrix(0.0345679012345679,0,0,0.0345679012345679,40.72098765432099,0)" xlink:href="#aK"/><use transform="matrix(0.0345679012345679,0,0,0.0345679012345679,47.634567901234576,0)" xlink:href="#aK"/><use transform="matrix(0.0345679012345679,0,0,0.0345679012345679,54.54814814814816,0)" xlink:href="#aL"/><use transform="matrix(0.0345679012345679,0,0,0.0345679012345679,60.77037037037038,0)" xlink:href="#aT"/><use transform="matrix(0.0345679012345679,0,0,0.0345679012345679,64.88395061728396,0)" xlink:href="#aP"/><use transform="matrix(0.0345679012345679,0,0,0.0345679012345679,73.18024691358026,0)" xlink:href="#aK"/><use transform="matrix(0.0345679012345679,0,0,0.0345679012345679,80.09382716049383,0)" xlink:href="#aK"/><use transform="matrix(0.0345679012345679,0,0,0.0345679012345679,87.00740740740741,0)" xlink:href="#aL"/><use transform="matrix(0.0345679012345679,0,0,0.0345679012345679,93.22962962962964,0)" xlink:href="#aU"/><use transform="matrix(0.0345679012345679,0,0,0.0345679012345679,97.34320987654323,0)" xlink:href="#aC"/></g><path fill="#3a414a" d="M127-220V0H93v-220H8v-28h204v28h-85" id="bm"/><path fill="#3a414a" d="M117-194c89-4 53 116 60 194h-32v-121c0-31-8-49-39-48C34-167 62-67 57 0H25l-1-190h30c1 10-1 24 2 32 11-22 29-35 61-36" id="bn"/><path fill="#3a414a" d="M135-143c-3-34-86-38-87 0 15 53 115 12 119 90S17 21 10-45l28-5c4 36 97 45 98 0-10-56-113-15-118-90-4-57 82-63 122-42 12 7 21 19 24 35" id="bo"/><path fill="#3a414a" d="M96-169c-40 0-48 33-48 73s9 75 48 75c24 0 41-14 43-38l32 2c-6 37-31 61-74 61-59 0-76-41-82-99-10-93 101-131 147-64 4 7 5 14 7 22l-32 3c-4-21-16-35-41-35" id="bp"/><path fill="#3a414a" d="M59-47c-2 24 18 29 38 22v24C64 9 27 4 27-40v-127H5v-23h24l9-43h21v43h35v23H59v120" id="bq"/><g id="ad"><use transform="matrix(0.06172839506172839,0,0,0.06172839506172839,0,0)" xlink:href="#bm"/><use transform="matrix(0.06172839506172839,0,0,0.06172839506172839,12.716049382716047,0)" xlink:href="#au"/><use transform="matrix(0.06172839506172839,0,0,0.06172839506172839,20.061728395061728,0)" xlink:href="#av"/><use transform="matrix(0.06172839506172839,0,0,0.06172839506172839,32.407407407407405,0)" xlink:href="#bn"/><use transform="matrix(0.06172839506172839,0,0,0.06172839506172839,44.75308641975308,0)" xlink:href="#bo"/><use transform="matrix(0.06172839506172839,0,0,0.06172839506172839,55.86419753086419,0)" xlink:href="#av"/><use transform="matrix(0.06172839506172839,0,0,0.06172839506172839,68.20987654320987,0)" xlink:href="#bp"/><use transform="matrix(0.06172839506172839,0,0,0.06172839506172839,79.32098765432099,0)" xlink:href="#bq"/><use transform="matrix(0.06172839506172839,0,0,0.06172839506172839,85.49382716049382,0)" xlink:href="#as"/><use transform="matrix(0.06172839506172839,0,0,0.06172839506172839,90.37037037037037,0)" xlink:href="#aY"/><use transform="matrix(0.06172839506172839,0,0,0.06172839506172839,102.71604938271605,0)" xlink:href="#bn"/></g><g id="ae"><use transform="matrix(0.0345679012345679,0,0,0.0345679012345679,0,0)" xlink:href="#aE"/><use transform="matrix(0.0345679012345679,0,0,0.0345679012345679,3.45679012345679,0)" xlink:href="#aG"/><use transform="matrix(0.0345679012345679,0,0,0.0345679012345679,7.5703703703703695,0)" xlink:href="#az"/><use transform="matrix(0.0345679012345679,0,0,0.0345679012345679,14.483950617283949,0)" xlink:href="#ay"/><use transform="matrix(0.0345679012345679,0,0,0.0345679012345679,21.397530864197527,0)" xlink:href="#aD"/><use transform="matrix(0.0345679012345679,0,0,0.0345679012345679,27.61975308641975,0)" xlink:href="#az"/><use transform="matrix(0.0345679012345679,0,0,0.0345679012345679,34.53333333333333,0)" xlink:href="#aN"/><use transform="matrix(0.0345679012345679,0,0,0.0345679012345679,40.75555555555555,0)" xlink:href="#aE"/><use transform="matrix(0.0345679012345679,0,0,0.0345679012345679,44.212345679012344,0)" xlink:href="#aH"/><use transform="matrix(0.0345679012345679,0,0,0.0345679012345679,46.94320987654321,0)" xlink:href="#aK"/><use transform="matrix(0.0345679012345679,0,0,0.0345679012345679,53.85679012345679,0)" xlink:href="#ay"/><use transform="matrix(0.0345679012345679,0,0,0.0345679012345679,60.77037037037037,0)" xlink:href="#be"/><use transform="matrix(0.0345679012345679,0,0,0.0345679012345679,64.22716049382716,0)" xlink:href="#aF"/><use transform="matrix(0.0345679012345679,0,0,0.0345679012345679,71.14074074074074,0)" xlink:href="#aC"/></g><g id="ag"><use transform="matrix(0.0345679012345679,0,0,0.0345679012345679,0,0)" xlink:href="#aA"/><use transform="matrix(0.0345679012345679,0,0,0.0345679012345679,10.335802469135801,0)" xlink:href="#aB"/><use transform="matrix(0.0345679012345679,0,0,0.0345679012345679,17.249382716049382,0)" xlink:href="#aA"/><use transform="matrix(0.0345679012345679,0,0,0.0345679012345679,27.585185185185182,0)" xlink:href="#aJ"/><use transform="matrix(0.0345679012345679,0,0,0.0345679012345679,34.498765432098764,0)" xlink:href="#aB"/><use transform="matrix(0.0345679012345679,0,0,0.0345679012345679,41.41234567901235,0)" xlink:href="#aG"/><use transform="matrix(0.0345679012345679,0,0,0.0345679012345679,45.52592592592592,0)" xlink:href="#aC"/></g><g id="ah"><use transform="matrix(0.0345679012345679,0,0,0.0345679012345679,0,0)" xlink:href="#aR"/><use transform="matrix(0.0345679012345679,0,0,0.0345679012345679,10.335802469135801,0)" xlink:href="#aB"/><use transform="matrix(0.0345679012345679,0,0,0.0345679012345679,17.249382716049382,0)" xlink:href="#aA"/><use transform="matrix(0.0345679012345679,0,0,0.0345679012345679,27.585185185185182,0)" xlink:href="#aJ"/><use transform="matrix(0.0345679012345679,0,0,0.0345679012345679,34.498765432098764,0)" xlink:href="#aB"/><use transform="matrix(0.0345679012345679,0,0,0.0345679012345679,41.41234567901235,0)" xlink:href="#aG"/></g><g id="ai"><use transform="matrix(0.0345679012345679,0,0,0.0345679012345679,0,0)" xlink:href="#aJ"/><use transform="matrix(0.0345679012345679,0,0,0.0345679012345679,6.91358024691358,0)" xlink:href="#aK"/><use transform="matrix(0.0345679012345679,0,0,0.0345679012345679,13.82716049382716,0)" xlink:href="#aK"/><use transform="matrix(0.0345679012345679,0,0,0.0345679012345679,20.74074074074074,0)" xlink:href="#aL"/><use transform="matrix(0.0345679012345679,0,0,0.0345679012345679,26.962962962962962,0)" xlink:href="#aC"/></g><g id="aj"><use transform="matrix(0.0345679012345679,0,0,0.0345679012345679,0,0)" xlink:href="#aP"/><use transform="matrix(0.0345679012345679,0,0,0.0345679012345679,8.296296296296296,0)" xlink:href="#aK"/><use transform="matrix(0.0345679012345679,0,0,0.0345679012345679,15.209876543209877,0)" xlink:href="#aK"/><use transform="matrix(0.0345679012345679,0,0,0.0345679012345679,22.123456790123456,0)" xlink:href="#aL"/></g><g id="ak"><use transform="matrix(0.0345679012345679,0,0,0.0345679012345679,0,0)" xlink:href="#aI"/><use transform="matrix(0.0345679012345679,0,0,0.0345679012345679,6.91358024691358,0)" xlink:href="#aB"/><use transform="matrix(0.0345679012345679,0,0,0.0345679012345679,13.82716049382716,0)" xlink:href="#aE"/><use transform="matrix(0.0345679012345679,0,0,0.0345679012345679,17.28395061728395,0)" xlink:href="#bc"/><use transform="matrix(0.0345679012345679,0,0,0.0345679012345679,24.404938271604937,0)" xlink:href="#aG"/><use transform="matrix(0.0345679012345679,0,0,0.0345679012345679,28.51851851851852,0)" xlink:href="#az"/><use transform="matrix(0.0345679012345679,0,0,0.0345679012345679,35.4320987654321,0)" xlink:href="#ay"/><use transform="matrix(0.0345679012345679,0,0,0.0345679012345679,42.345679012345684,0)" xlink:href="#aD"/><use transform="matrix(0.0345679012345679,0,0,0.0345679012345679,48.567901234567906,0)" xlink:href="#az"/><use transform="matrix(0.0345679012345679,0,0,0.0345679012345679,55.481481481481495,0)" xlink:href="#aN"/><use transform="matrix(0.0345679012345679,0,0,0.0345679012345679,61.7037037037037,0)" xlink:href="#aE"/><use transform="matrix(0.0345679012345679,0,0,0.0345679012345679,65.1604938271605,0)" xlink:href="#aH"/><use transform="matrix(0.0345679012345679,0,0,0.0345679012345679,67.89135802469136,0)" xlink:href="#aK"/><use transform="matrix(0.0345679012345679,0,0,0.0345679012345679,74.80493827160495,0)" xlink:href="#ay"/><use transform="matrix(0.0345679012345679,0,0,0.0345679012345679,81.71851851851852,0)" xlink:href="#be"/><use transform="matrix(0.0345679012345679,0,0,0.0345679012345679,85.1753086419753,0)" xlink:href="#aF"/><use transform="matrix(0.0345679012345679,0,0,0.0345679012345679,92.0888888888889,0)" xlink:href="#aT"/><use transform="matrix(0.0345679012345679,0,0,0.0345679012345679,96.20246913580247,0)" xlink:href="#aU"/></g><g id="al"><use transform="matrix(0.0345679012345679,0,0,0.0345679012345679,0,0)" xlink:href="#aI"/><use transform="matrix(0.0345679012345679,0,0,0.0345679012345679,6.91358024691358,0)" xlink:href="#aB"/><use transform="matrix(0.0345679012345679,0,0,0.0345679012345679,13.82716049382716,0)" xlink:href="#aE"/><use transform="matrix(0.0345679012345679,0,0,0.0345679012345679,17.28395061728395,0)" xlink:href="#aR"/><use transform="matrix(0.0345679012345679,0,0,0.0345679012345679,27.61975308641975,0)" xlink:href="#aB"/><use transform="matrix(0.0345679012345679,0,0,0.0345679012345679,34.53333333333333,0)" xlink:href="#aA"/><use transform="matrix(0.0345679012345679,0,0,0.0345679012345679,44.86913580246913,0)" xlink:href="#aJ"/><use transform="matrix(0.0345679012345679,0,0,0.0345679012345679,51.782716049382714,0)" xlink:href="#aB"/><use transform="matrix(0.0345679012345679,0,0,0.0345679012345679,58.696296296296296,0)" xlink:href="#aG"/><use transform="matrix(0.0345679012345679,0,0,0.0345679012345679,62.80987654320987,0)" xlink:href="#aT"/><use transform="matrix(0.0345679012345679,0,0,0.0345679012345679,66.92345679012345,0)" xlink:href="#aU"/></g><g id="am"><use transform="matrix(0.0345679012345679,0,0,0.0345679012345679,0,0)" xlink:href="#aI"/><use transform="matrix(0.0345679012345679,0,0,0.0345679012345679,6.91358024691358,0)" xlink:href="#aB"/><use transform="matrix(0.0345679012345679,0,0,0.0345679012345679,13.82716049382716,0)" xlink:href="#aE"/><use transform="matrix(0.0345679012345679,0,0,0.0345679012345679,17.28395061728395,0)" xlink:href="#aP"/><use transform="matrix(0.0345679012345679,0,0,0.0345679012345679,25.580246913580247,0)" xlink:href="#aK"/><use transform="matrix(0.0345679012345679,0,0,0.0345679012345679,32.49382716049383,0)" xlink:href="#aK"/><use transform="matrix(0.0345679012345679,0,0,0.0345679012345679,39.40740740740741,0)" xlink:href="#aL"/><use transform="matrix(0.0345679012345679,0,0,0.0345679012345679,45.62962962962963,0)" xlink:href="#aT"/><use transform="matrix(0.0345679012345679,0,0,0.0345679012345679,49.74320987654321,0)" xlink:href="#aU"/></g><path d="M30-248c118-7 216 8 213 122C240-48 200 0 122 0H30v-248zM63-27c89 8 146-16 146-99s-60-101-146-95v194" id="br"/><g id="an"><use transform="matrix(0.0345679012345679,0,0,0.0345679012345679,0,0)" xlink:href="#aI"/><use transform="matrix(0.0345679012345679,0,0,0.0345679012345679,6.91358024691358,0)" xlink:href="#aB"/><use transform="matrix(0.0345679012345679,0,0,0.0345679012345679,13.82716049382716,0)" xlink:href="#aE"/><use transform="matrix(0.0345679012345679,0,0,0.0345679012345679,17.28395061728395,0)" xlink:href="#br"/><use transform="matrix(0.0345679012345679,0,0,0.0345679012345679,26.237037037037034,0)" xlink:href="#az"/><use transform="matrix(0.0345679012345679,0,0,0.0345679012345679,33.150617283950616,0)" xlink:href="#aE"/><use transform="matrix(0.0345679012345679,0,0,0.0345679012345679,36.6074074074074,0)" xlink:href="#aB"/><use transform="matrix(0.0345679012345679,0,0,0.0345679012345679,43.52098765432099,0)" xlink:href="#aT"/><use transform="matrix(0.0345679012345679,0,0,0.0345679012345679,47.63456790123457,0)" xlink:href="#aU"/></g><g id="ao"><use transform="matrix(0.0345679012345679,0,0,0.0345679012345679,0,0)" xlink:href="#aF"/><use transform="matrix(0.0345679012345679,0,0,0.0345679012345679,6.91358024691358,0)" xlink:href="#az"/><use transform="matrix(0.0345679012345679,0,0,0.0345679012345679,13.82716049382716,0)" xlink:href="#aE"/><use transform="matrix(0.0345679012345679,0,0,0.0345679012345679,17.28395061728395,0)" xlink:href="#aB"/><use transform="matrix(0.0345679012345679,0,0,0.0345679012345679,24.197530864197528,0)" xlink:href="#aC"/></g><path d="M115-194c55 1 70 41 70 98S169 2 115 4C84 4 66-9 55-30l1 105H24l-1-265h31l2 30c10-21 28-34 59-34zm-8 174c40 0 45-34 45-75s-6-73-45-74c-42 0-51 32-51 76 0 43 10 73 51 73" id="bs"/><g id="ap"><use transform="matrix(0.0345679012345679,0,0,0.0345679012345679,0,0)" xlink:href="#aE"/><use transform="matrix(0.0345679012345679,0,0,0.0345679012345679,3.45679012345679,0)" xlink:href="#bh"/><use transform="matrix(0.0345679012345679,0,0,0.0345679012345679,9.679012345679011,0)" xlink:href="#bs"/><use transform="matrix(0.0345679012345679,0,0,0.0345679012345679,16.59259259259259,0)" xlink:href="#aB"/><use transform="matrix(0.0345679012345679,0,0,0.0345679012345679,23.50617283950617,0)" xlink:href="#aC"/></g><g id="aq"><use transform="matrix(0.0345679012345679,0,0,0.0345679012345679,0,0)" xlink:href="#aI"/><use transform="matrix(0.0345679012345679,0,0,0.0345679012345679,6.91358024691358,0)" xlink:href="#aB"/><use transform="matrix(0.0345679012345679,0,0,0.0345679012345679,13.82716049382716,0)" xlink:href="#aE"/><use transform="matrix(0.0345679012345679,0,0,0.0345679012345679,17.28395061728395,0)" xlink:href="#bc"/><use transform="matrix(0.0345679012345679,0,0,0.0345679012345679,24.16296296296296,0)" xlink:href="#bh"/><use transform="matrix(0.0345679012345679,0,0,0.0345679012345679,30.385185185185183,0)" xlink:href="#bs"/><use transform="matrix(0.0345679012345679,0,0,0.0345679012345679,37.29876543209876,0)" xlink:href="#aB"/><use transform="matrix(0.0345679012345679,0,0,0.0345679012345679,44.212345679012344,0)" xlink:href="#aT"/><use transform="matrix(0.0345679012345679,0,0,0.0345679012345679,48.32592592592592,0)" xlink:href="#aU"/></g></defs></g></svg>